<svg width="181" height="180" viewBox="0 0 181 180" fill="none" xmlns="http://www.w3.org/2000/svg">
<path d="M158.72 153.129C155.095 156.945 151.666 159.405 148.956 161.35C117.105 184.202 79.4174 177.541 71.4074 175.914C59.5788 173.512 36.7162 168.868 20.1864 149.428C-4.82075 120.02 -0.926961 73.6869 18.4706 43.0997C22.0186 37.5068 40.7611 6.45677 78.8556 1.47463C101.91 -1.53845 128.783 4.53913 148.244 20.8439C189.095 55.0742 186.187 124.214 158.72 153.129Z" fill="url(#paint0_linear_20_1512)"/>
<path d="M2.34839 174.036H79.4097V158.613H2.34839C3.99925 158.613 3.99925 174.036 2.34839 174.036Z" fill="#BDD0FB"/>
<path d="M79.4097 170.177V163.118C79.4097 160.63 77.8867 158.613 76.0083 158.613H2.67493C1.96549 158.613 1.28512 158.331 0.783469 157.83C0.281823 157.328 1.67602e-07 156.647 1.67602e-07 155.938C1.67602e-07 155.723 0.0856108 155.516 0.237998 155.363C0.390385 155.211 0.597064 155.125 0.812571 155.125H80.9602C82.7982 155.125 85.7174 158.018 85.7174 161.58V171.438C85.7174 174.799 82.8843 177.523 81.1531 177.523H1.23429C1.07218 177.523 0.911635 177.492 0.761846 177.43C0.612057 177.368 0.475956 177.277 0.361325 177.162C0.246694 177.047 0.155781 176.911 0.0937823 176.761C0.0317835 176.612 -8.43321e-05 176.451 1.67602e-07 176.289C-4.39879e-07 175.692 0.236951 175.119 0.658816 174.697C1.08068 174.274 1.65297 174.037 2.25 174.036H76.4956C78.1047 174.036 79.4097 172.308 79.4097 170.177Z" fill="url(#paint1_linear_20_1512)"/>
<path d="M77.2721 161.996H5.01813C4.96229 161.993 4.90974 161.968 4.87128 161.928C4.83283 161.887 4.8114 161.833 4.8114 161.777C4.8114 161.721 4.83283 161.668 4.87128 161.627C4.90974 161.586 4.96229 161.562 5.01813 161.559H77.2754C77.3312 161.562 77.3837 161.586 77.4222 161.627C77.4606 161.668 77.4821 161.721 77.4821 161.777C77.4821 161.833 77.4606 161.887 77.4222 161.928C77.3837 161.968 77.3312 161.993 77.2754 161.996H77.2721Z" fill="url(#paint2_linear_20_1512)"/>
<path d="M77.2721 164.285H5.01813C4.96229 164.282 4.90974 164.258 4.87128 164.217C4.83283 164.176 4.8114 164.123 4.8114 164.067C4.8114 164.011 4.83283 163.957 4.87128 163.916C4.90974 163.876 4.96229 163.851 5.01813 163.848H77.2754C77.3312 163.851 77.3837 163.876 77.4222 163.916C77.4606 163.957 77.4821 164.011 77.4821 164.067C77.4821 164.123 77.4606 164.176 77.4222 164.217C77.3837 164.258 77.3312 164.282 77.2754 164.285H77.2721Z" fill="url(#paint3_linear_20_1512)"/>
<path d="M77.2721 166.574H5.01813C4.96229 166.571 4.90974 166.547 4.87128 166.506C4.83283 166.466 4.8114 166.412 4.8114 166.356C4.8114 166.3 4.83283 166.246 4.87128 166.206C4.90974 166.165 4.96229 166.141 5.01813 166.138H77.2754C77.3312 166.141 77.3837 166.165 77.4222 166.206C77.4606 166.246 77.4821 166.3 77.4821 166.356C77.4821 166.412 77.4606 166.466 77.4222 166.506C77.3837 166.547 77.3312 166.571 77.2754 166.574H77.2721Z" fill="url(#paint4_linear_20_1512)"/>
<path d="M77.2721 168.863H5.01813C4.96229 168.86 4.90974 168.836 4.87128 168.795C4.83283 168.755 4.8114 168.701 4.8114 168.645C4.8114 168.589 4.83283 168.535 4.87128 168.495C4.90974 168.454 4.96229 168.43 5.01813 168.427H77.2754C77.3312 168.43 77.3837 168.454 77.4222 168.495C77.4606 168.535 77.4821 168.589 77.4821 168.645C77.4821 168.701 77.4606 168.755 77.4222 168.795C77.3837 168.836 77.3312 168.86 77.2754 168.863H77.2721Z" fill="url(#paint5_linear_20_1512)"/>
<path d="M77.2722 171.153H5.01822C4.96042 171.153 4.90499 171.13 4.86412 171.089C4.82325 171.048 4.80029 170.993 4.80029 170.935C4.80029 170.877 4.82325 170.821 4.86412 170.781C4.90499 170.74 4.96042 170.717 5.01822 170.717H77.2754C77.3332 170.717 77.3887 170.74 77.4295 170.781C77.4704 170.821 77.4934 170.877 77.4934 170.935C77.4934 170.993 77.4704 171.048 77.4295 171.089C77.3887 171.13 77.3332 171.153 77.2754 171.153H77.2722Z" fill="url(#paint6_linear_20_1512)"/>
<path d="M75.0633 138.183H12.9163C10.4943 138.183 8.53076 140.146 8.53076 142.568V150.916C8.53076 153.338 10.4943 155.302 12.9163 155.302H75.0633C77.4854 155.302 79.4489 153.338 79.4489 150.916V142.568C79.4489 140.146 77.4854 138.183 75.0633 138.183Z" fill="#7D97F4"/>
<path d="M63.569 153.334H70.9696C71.2267 153.334 71.4351 153.126 71.4351 152.869V140.616C71.4351 140.359 71.2267 140.151 70.9696 140.151H63.569C63.312 140.151 63.1036 140.359 63.1036 140.616V152.869C63.1036 153.126 63.312 153.334 63.569 153.334Z" fill="url(#paint7_linear_20_1512)"/>
<path d="M58.9874 153.334H61.6418C61.7721 153.334 61.8777 153.229 61.8777 153.099V140.387C61.8777 140.256 61.7721 140.151 61.6418 140.151H58.9874C58.8571 140.151 58.7515 140.256 58.7515 140.387V153.099C58.7515 153.229 58.8571 153.334 58.9874 153.334Z" fill="url(#paint8_linear_20_1512)"/>
<path d="M73.2556 95.1803C73.2556 95.1803 55.8663 34.3286 24.1342 2.15102C22.0006 -0.0121961 18.3215 1.02859 17.6536 3.99088C13.1908 23.8089 5.62698 83.6493 73.2556 95.1803Z" fill="#BDD0FB"/>
<path d="M66.944 91.4941C66.9748 91.5227 66.9937 91.5618 66.9971 91.6037C67.0005 91.6456 66.988 91.6872 66.9621 91.7203C66.9363 91.7535 66.8989 91.7757 66.8575 91.7826C66.816 91.7895 66.7735 91.7806 66.7383 91.7577C60.3142 87.4216 35.255 65.8171 24.3161 20.9791C24.307 20.9494 24.31 20.9173 24.3245 20.8899C24.3391 20.8625 24.3639 20.8419 24.3935 20.8328C24.4232 20.8237 24.4553 20.8267 24.4827 20.8412C24.5101 20.8558 24.5307 20.8806 24.5398 20.9103C28.0357 31.2596 42.1342 69.3676 66.944 91.4941Z" fill="url(#paint9_linear_20_1512)"/>
<path d="M87.1298 140.58C87.1298 140.58 53.0513 71.4523 8.02485 39.8005C4.99827 37.6727 0.815197 39.7189 0.660911 43.4153C-0.37409 68.1339 3.58399 141.483 87.1298 140.58Z" fill="#91B3FA"/>
<path d="M78.7661 137.537C78.8115 137.563 78.8449 137.606 78.8594 137.657C78.8739 137.707 78.8684 137.761 78.8441 137.808C78.8197 137.854 78.7784 137.889 78.7286 137.906C78.6789 137.923 78.6246 137.92 78.5771 137.898C69.9358 134.1 35.2074 113.667 12.3409 62.3206C12.2676 62.1554 12.5068 62.0313 12.5942 62.192C19.035 73.8297 44.2228 116.422 78.7661 137.537Z" fill="#BDD0FB"/>
<path d="M28.2241 12.2787C28.2184 11.7889 28.318 11.3037 28.5161 10.8558C28.7142 10.4079 29.0062 10.0077 29.3724 9.68241C29.7385 9.35711 30.1702 9.11425 30.6384 8.97025C31.1065 8.82625 31.6001 8.78448 32.0858 8.84776C45.7677 10.6304 92.8133 16.1204 131.67 12.9344C132.091 12.8991 132.514 12.9483 132.915 13.079C133.316 13.2097 133.686 13.4194 134.005 13.6956C134.324 13.9718 134.584 14.309 134.771 14.6874C134.957 15.0657 135.066 15.4776 135.091 15.8986L143.599 161.662C143.655 162.622 143.329 163.565 142.692 164.286C142.055 165.006 141.159 165.445 140.2 165.507C123.856 166.56 56.5452 170.65 32.5171 168.26C31.8109 168.189 31.1556 167.86 30.6767 167.336C30.1979 166.812 29.9291 166.13 29.9219 165.42L28.2241 12.2787Z" fill="#7D97F4"/>
<path d="M29.8537 15.9224C29.8482 15.4511 29.944 14.9841 30.1346 14.553C30.3252 14.122 30.6061 13.7369 30.9584 13.4237C31.3107 13.1106 31.7262 12.8769 32.1766 12.7382C32.6271 12.5995 33.1021 12.5592 33.5695 12.62C46.7365 14.3358 92.0104 19.6195 129.404 16.553C129.809 16.519 130.216 16.5664 130.602 16.6922C130.988 16.818 131.345 17.0198 131.651 17.2857C131.958 17.5515 132.209 17.8761 132.388 18.2402C132.568 18.6044 132.672 19.0008 132.696 19.406L140.884 159.681C140.939 160.605 140.625 161.512 140.012 162.206C139.399 162.899 138.537 163.322 137.613 163.381C121.885 164.394 57.109 168.331 33.9847 166.03C33.3052 165.961 32.6747 165.645 32.214 165.141C31.7533 164.636 31.4947 163.98 31.4879 163.297L29.8537 15.9224Z" fill="#BDD0FB"/>
<path opacity="0.78" d="M42.0905 26.6787L43.6443 56.7535C43.6688 57.2353 43.8746 57.6901 44.2204 58.0265C44.5661 58.363 45.0263 58.5563 45.5086 58.5677C51.0802 58.6963 68.4426 59.0292 78.2423 58.4674C78.7766 58.4363 79.2799 58.2059 79.6525 57.8217C80.025 57.4374 80.2399 56.9273 80.2544 56.3922C80.4119 50.7499 80.7353 34.3274 79.4142 27.4701C79.3096 26.9327 79.0251 26.447 78.6076 26.0928C78.1901 25.7386 77.6645 25.5372 77.1173 25.5216L44.1817 24.5412C43.9009 24.5327 43.6213 24.5826 43.3607 24.6876C43.1 24.7927 42.864 24.9506 42.6675 25.1515C42.471 25.3523 42.3182 25.5918 42.2189 25.8546C42.1196 26.1175 42.0759 26.3981 42.0905 26.6787Z" fill="white"/>
<path d="M67.5388 37.8218C67.8103 34.2608 65.1436 31.1539 61.5826 30.8824C58.0216 30.6109 54.9147 33.2776 54.6432 36.8386C54.3717 40.3996 57.0384 43.5065 60.5994 43.778C64.1604 44.0495 67.2673 41.3828 67.5388 37.8218Z" fill="url(#paint10_linear_20_1512)"/>
<path d="M51.3709 56.3702L71.9732 56.2628C73.2364 56.2564 73.986 54.8576 73.3 53.7968C71.536 51.0679 67.8537 47.0642 61.5139 47.2783C55.4067 47.4853 51.7996 51.1354 49.9926 53.7531C49.225 54.8633 50.0215 56.3786 51.3709 56.3702Z" fill="url(#paint11_linear_20_1512)"/>
<g opacity="0.6">
<path opacity="0.6" d="M124.632 28.8643C124.765 28.8654 124.896 28.8398 125.019 28.7889C125.141 28.7381 125.252 28.6631 125.345 28.5684C125.438 28.4737 125.511 28.3613 125.559 28.2379C125.608 28.1144 125.631 27.9825 125.627 27.8499C125.612 27.5766 125.494 27.3192 125.296 27.1297C125.098 26.9402 124.836 26.8325 124.563 26.8284L88.1629 26.3687C87.5965 26.3617 87.2892 26.7924 87.4801 27.3253L87.7527 28.0852C87.9456 28.6181 88.5627 29.0495 89.1291 29.0495L124.632 28.8643Z" fill="white"/>
</g>
<g opacity="0.6">
<path opacity="0.6" d="M88.1924 31.9784C87.626 31.9713 87.3188 32.4014 87.5097 32.9349L87.7816 33.6941C87.9745 34.2277 88.5923 34.6584 89.1586 34.6584L124.661 34.4739C124.794 34.475 124.925 34.4494 125.048 34.3985C125.17 34.3477 125.281 34.2727 125.374 34.178C125.467 34.0833 125.54 33.9709 125.588 33.8475C125.637 33.724 125.66 33.5921 125.656 33.4595C125.641 33.1861 125.522 32.9287 125.325 32.7391C125.127 32.5494 124.865 32.4416 124.592 32.4374L88.1924 31.9784Z" fill="white"/>
</g>
<g opacity="0.6">
<path opacity="0.6" d="M88.222 37.6676C87.6556 37.6605 87.3483 38.0912 87.5392 38.6241L87.8112 39.384C88.004 39.9169 88.6218 40.3483 89.1882 40.3483L124.691 40.1638C124.823 40.1649 124.955 40.1392 125.077 40.0884C125.2 40.0376 125.311 39.9626 125.404 39.8679C125.496 39.7732 125.569 39.6608 125.618 39.5373C125.666 39.4139 125.689 39.2819 125.686 39.1494C125.67 38.8761 125.552 38.6188 125.355 38.4292C125.157 38.2395 124.896 38.1317 124.622 38.1272L88.222 37.6676Z" fill="white"/>
</g>
<g opacity="0.6">
<path opacity="0.6" d="M128.341 67.5824C128.472 67.5846 128.602 67.5595 128.723 67.5086C128.844 67.4577 128.953 67.3821 129.043 67.2867C129.133 67.1914 129.203 67.0782 129.247 66.9546C129.291 66.8309 129.308 66.6995 129.299 66.5686C129.259 66.0138 128.764 65.5587 128.197 65.5568L43.3112 65.3298C42.7449 65.3298 42.572 65.6879 42.9255 66.1289L43.8011 67.2173C44.156 67.6583 44.91 68.017 45.4764 68.0138L128.341 67.5824Z" fill="white"/>
</g>
<g opacity="0.6">
<path opacity="0.6" d="M43.3408 70.9373C42.7744 70.9373 42.6015 71.2953 42.9551 71.737L43.8306 72.8247C44.1861 73.2657 44.9396 73.6244 45.5059 73.6218L128.37 73.1905C128.502 73.1925 128.632 73.1672 128.753 73.1162C128.874 73.0652 128.983 72.9896 129.073 72.8942C129.163 72.7988 129.232 72.6856 129.276 72.562C129.32 72.4384 129.338 72.3069 129.328 72.176C129.288 71.6213 128.793 71.1661 128.226 71.1648L43.3408 70.9373Z" fill="white"/>
</g>
<path opacity="0.6" d="M43.1512 80.3032C45.1839 80.1367 48.9929 80.0461 51.0892 80.0043C51.5203 79.9955 51.9417 80.1335 52.284 80.3958C52.6262 80.658 52.8692 81.0289 52.9728 81.4475C53.3861 83.1234 53.9596 86.033 53.9056 89.12C53.8986 89.5641 53.7169 89.9876 53.3998 90.2985C53.0827 90.6095 52.6558 90.7829 52.2116 90.7812L44.4736 90.7381C44.0141 90.7355 43.5719 90.5628 43.2324 90.2533C42.8928 89.9438 42.68 89.5194 42.635 89.0622L41.9169 81.7869C41.899 81.6082 41.9168 81.4277 41.9694 81.2559C42.0219 81.0841 42.1082 80.9245 42.2231 80.7864C42.338 80.6483 42.4792 80.5344 42.6386 80.4515C42.7979 80.3685 42.9722 80.3181 43.1512 80.3032Z" fill="white"/>
<g opacity="0.6">
<path opacity="0.6" d="M57.332 83.2124C56.7656 83.1918 56.3741 83.6328 56.4609 84.1927L56.6988 85.7227C56.7505 86.0021 56.8968 86.2552 57.1132 86.4395C57.3295 86.6238 57.6027 86.728 57.8868 86.7346L76.9655 86.6356C77.1001 86.6348 77.2332 86.6074 77.3571 86.5548C77.481 86.5022 77.5932 86.4256 77.6873 86.3293C77.7814 86.233 77.8554 86.119 77.9051 85.994C77.9547 85.8689 77.9791 85.7352 77.9767 85.6006L77.9658 84.9963C77.9574 84.7193 77.8449 84.4557 77.6509 84.2579C77.4568 84.0602 77.1953 83.9428 76.9186 83.9291L57.332 83.2124Z" fill="white"/>
</g>
<path opacity="0.6" d="M85.3034 80.084C87.3367 79.9175 91.145 79.8269 93.2414 79.7851C93.6725 79.7761 94.0939 79.9141 94.4362 80.1764C94.7786 80.4387 95.0214 80.8097 95.125 81.2283C95.5383 82.9042 96.1117 85.8138 96.0577 88.9008C96.0508 89.3449 95.8691 89.7683 95.552 90.0793C95.2349 90.3903 94.808 90.5637 94.3638 90.5619L86.6257 90.5189C86.1663 90.5162 85.7242 90.3434 85.3847 90.0339C85.0452 89.7244 84.8323 89.3001 84.7872 88.8429L84.0691 81.5677C84.0507 81.3889 84.0682 81.2082 84.1206 81.0362C84.173 80.8642 84.2592 80.7045 84.3742 80.5663C84.4891 80.4281 84.6306 80.3142 84.7901 80.2314C84.9497 80.1486 85.1242 80.0985 85.3034 80.084Z" fill="white"/>
<g opacity="0.6">
<path opacity="0.6" d="M99.4842 82.9929C98.9185 82.9723 98.5263 83.4133 98.6131 83.9726L98.851 85.5026C98.9027 85.7821 99.049 86.0353 99.2653 86.2196C99.4816 86.404 99.7548 86.5083 100.039 86.5151L119.118 86.4155C119.252 86.4148 119.385 86.3874 119.509 86.3349C119.633 86.2824 119.745 86.2058 119.839 86.1096C119.934 86.0134 120.008 85.8994 120.057 85.7744C120.107 85.6493 120.131 85.5156 120.129 85.3811L120.119 84.7768C120.11 84.4999 119.997 84.2365 119.803 84.0388C119.609 83.8411 119.348 83.7236 119.071 83.7097L99.4842 82.9929Z" fill="white"/>
</g>
<path d="M54.2181 109.126H54.1988L47.0585 109.094C46.0383 109.09 45.1943 108.392 45.0914 107.473L44.4325 101.486C44.4138 101.31 44.431 101.133 44.4831 100.964C44.5351 100.795 44.6209 100.639 44.7353 100.505C44.8716 100.345 45.0387 100.215 45.2264 100.121C45.4141 100.028 45.6188 99.973 45.8281 99.9601C46.4292 99.9157 47.2758 99.8392 48.1726 99.7582C50.06 99.5872 52.4091 99.3725 53.7314 99.3519C54.6906 99.3423 55.5076 99.9054 55.7378 100.74C56.1171 102.113 56.0978 104.717 56.0412 107.49C56.02 108.391 55.2055 109.121 54.2181 109.126ZM45.8648 100.507C45.7296 100.515 45.5974 100.55 45.4759 100.61C45.3545 100.67 45.2462 100.753 45.1576 100.856C45.0906 100.933 45.0402 101.024 45.0094 101.122C44.9785 101.22 44.968 101.323 44.9783 101.425L45.6372 107.412C45.7079 108.055 46.3205 108.543 47.0618 108.547L54.202 108.578H54.2161C54.9078 108.574 55.4787 108.084 55.4909 107.479C55.5462 104.747 55.5661 102.188 55.2068 100.886C55.0454 100.302 54.4353 99.8984 53.7385 99.8996C52.4361 99.9228 50.098 100.134 48.2196 100.304C47.3195 100.386 46.4716 100.462 45.8654 100.507H45.8648Z" fill="white"/>
<path opacity="0.6" d="M46.6362 101.122C48.136 101.011 51.3933 100.663 52.94 100.636C53.5951 100.625 54.1717 101.017 54.328 101.584C54.6327 102.686 54.6044 104.886 54.5632 106.916C54.551 107.524 53.995 108.012 53.3129 108.009L47.6075 107.983C46.9055 107.983 46.3218 107.505 46.2517 106.882L45.7252 102.097C45.6712 101.602 46.0807 101.162 46.6362 101.122Z" fill="white"/>
<g opacity="0.6">
<path opacity="0.6" d="M60.4685 105.116C60.5711 105.496 60.7974 105.831 61.1117 106.069C61.426 106.306 61.8104 106.432 62.2042 106.427L128.261 105.52C128.617 105.517 128.956 105.374 129.206 105.12C129.456 104.867 129.594 104.525 129.592 104.17C129.589 103.814 129.446 103.474 129.192 103.225C128.939 102.975 128.597 102.837 128.242 102.839L62.1785 102.882C61.9065 102.882 61.6382 102.945 61.3943 103.065C61.1505 103.186 60.9377 103.361 60.7723 103.577C60.607 103.793 60.4936 104.044 60.4409 104.311C60.3882 104.577 60.3977 104.853 60.4685 105.116Z" fill="white"/>
</g>
<path d="M54.2977 124.428H54.2784L47.1382 124.397C46.1179 124.392 45.2739 123.695 45.171 122.775L44.5121 116.787C44.4934 116.612 44.5106 116.434 44.5626 116.266C44.6147 116.097 44.7005 115.941 44.8149 115.807C44.9513 115.648 45.1183 115.517 45.306 115.423C45.4937 115.33 45.6983 115.275 45.9077 115.262C46.5088 115.218 47.3554 115.141 48.2522 115.06C50.1397 114.89 52.4887 114.674 53.811 114.654H53.8393C54.7785 114.648 55.5892 115.216 55.8174 116.042C56.1967 117.415 56.1774 120.018 56.1208 122.792C56.0996 123.693 55.2851 124.423 54.2977 124.428ZM45.9444 115.809C45.8092 115.817 45.6771 115.852 45.5556 115.912C45.4342 115.972 45.3259 116.055 45.2372 116.157C45.1704 116.235 45.1201 116.326 45.0894 116.424C45.0587 116.522 45.0482 116.625 45.0585 116.727L45.7174 122.714C45.7882 123.357 46.4008 123.845 47.142 123.848L54.2822 123.88H54.2964C54.9881 123.876 55.5589 123.386 55.5712 122.781C55.6264 120.049 55.6464 117.49 55.287 116.187C55.1257 115.604 54.5066 115.187 53.8187 115.202C52.5163 115.225 50.1782 115.437 48.2992 115.606C47.3992 115.687 46.5519 115.764 45.9457 115.809H45.9444Z" fill="white"/>
<path opacity="0.6" d="M46.7158 116.422C48.2149 116.311 51.4729 115.963 53.0196 115.936C53.6747 115.924 54.2513 116.317 54.4076 116.884C54.7116 117.986 54.684 120.185 54.6428 122.216C54.63 122.824 54.0746 123.312 53.3925 123.308L47.6865 123.283C46.9851 123.28 46.4008 122.805 46.3313 122.182L45.8048 117.398C45.7508 116.905 46.1603 116.464 46.7158 116.422Z" fill="white"/>
<g opacity="0.6">
<path opacity="0.6" d="M60.5481 120.417C60.6505 120.798 60.8768 121.133 61.1911 121.371C61.5054 121.609 61.8899 121.735 62.2839 121.73L128.341 120.822C128.691 120.813 129.024 120.666 129.268 120.413C129.512 120.161 129.647 119.823 129.644 119.472C129.642 119.121 129.502 118.786 129.255 118.537C129.007 118.288 128.672 118.146 128.321 118.141L62.2582 118.184C61.9862 118.184 61.7179 118.247 61.4742 118.367C61.2304 118.488 61.0176 118.663 60.8523 118.879C60.687 119.095 60.5736 119.346 60.5208 119.613C60.4681 119.88 60.4774 120.155 60.5481 120.417Z" fill="white"/>
</g>
<path d="M54.3774 139.73H54.3581L47.2198 139.699C46.1996 139.695 45.3555 138.997 45.2527 138.077L44.5937 132.09C44.5751 131.914 44.5923 131.737 44.6443 131.568C44.6964 131.4 44.7822 131.243 44.8965 131.109C45.0329 130.95 45.1999 130.819 45.3877 130.726C45.5754 130.632 45.78 130.577 45.9894 130.564C46.5904 130.52 47.4371 130.444 48.3332 130.363C50.2213 130.192 52.5703 129.977 53.8927 129.956H53.9209C54.8602 129.952 55.6708 130.519 55.899 131.345C56.2783 132.718 56.259 135.322 56.2025 138.095C56.1793 138.995 55.3648 139.725 54.3774 139.73ZM46.0241 131.112C45.8889 131.12 45.7567 131.154 45.6353 131.214C45.5139 131.274 45.4056 131.358 45.3169 131.46C45.25 131.538 45.1996 131.629 45.1689 131.727C45.1382 131.825 45.1277 131.928 45.1382 132.03L45.7972 138.017C45.8679 138.66 46.4805 139.148 47.2217 139.151L54.3619 139.182H54.3761C55.0678 139.179 55.638 138.688 55.6509 138.083C55.7062 135.352 55.7261 132.793 55.3667 131.49C55.2054 130.906 54.5863 130.488 53.8985 130.505C52.596 130.528 50.2579 130.739 48.3789 130.908C47.4789 130.99 46.6309 131.067 46.0254 131.112H46.0241Z" fill="white"/>
<path opacity="0.6" d="M46.7956 131.726C48.2947 131.616 51.5527 131.267 53.0994 131.24C53.7545 131.229 54.3312 131.621 54.4874 132.188C54.7915 133.29 54.7638 135.49 54.722 137.52C54.7098 138.128 54.1544 138.613 53.4723 138.613L47.7663 138.587C47.0649 138.587 46.4806 138.109 46.4112 137.486L45.8847 132.701C45.83 132.207 46.2395 131.767 46.7956 131.726Z" fill="white"/>
<g opacity="0.6">
<path opacity="0.6" d="M60.6278 135.72C60.7303 136.1 60.9566 136.436 61.2709 136.673C61.5852 136.911 61.9696 137.037 62.3635 137.031L128.42 136.124C128.776 136.122 129.116 135.978 129.365 135.725C129.615 135.472 129.754 135.13 129.751 134.774C129.749 134.419 129.605 134.079 129.352 133.829C129.099 133.58 128.757 133.441 128.401 133.444L62.3378 133.486C62.0658 133.486 61.7975 133.549 61.5537 133.67C61.3098 133.79 61.097 133.965 60.9316 134.181C60.7663 134.397 60.6529 134.648 60.6002 134.915C60.5475 135.182 60.557 135.457 60.6278 135.72Z" fill="white"/>
</g>
<path d="M54.4572 155.033H54.4379L47.2977 155.001C46.2775 154.997 45.4334 154.3 45.3305 153.38L44.6716 147.393C44.6529 147.217 44.6702 147.04 44.7222 146.871C44.7743 146.702 44.8601 146.546 44.9744 146.412C45.1101 146.252 45.2763 146.122 45.4632 146.028C45.6502 145.934 45.854 145.878 46.0628 145.865C46.6645 145.821 47.5111 145.744 48.4073 145.663C50.2947 145.492 52.6443 145.278 53.966 145.256H53.995C54.9342 145.251 55.7448 145.819 55.9731 146.645C56.3517 148.018 56.3331 150.621 56.2765 153.395C56.2591 154.298 55.4446 155.028 54.4572 155.033ZM46.1039 146.414C45.9687 146.422 45.8366 146.456 45.7151 146.516C45.5937 146.576 45.4854 146.66 45.3968 146.762C45.3298 146.84 45.2794 146.931 45.2487 147.029C45.218 147.127 45.2076 147.23 45.218 147.332L45.877 153.319C45.9477 153.962 46.5597 154.45 47.3015 154.453L54.4418 154.485H54.4559C55.1476 154.481 55.7178 153.99 55.7301 153.385C55.786 150.654 55.8059 148.095 55.4465 146.792C55.2852 146.209 54.6661 145.788 53.9776 145.807C52.6758 145.83 50.3378 146.041 48.4587 146.211C47.5587 146.292 46.7108 146.369 46.1052 146.414H46.1039Z" fill="white"/>
<path opacity="0.6" d="M46.8753 147.028C48.3744 146.917 51.6324 146.57 53.1753 146.542C53.8304 146.53 54.407 146.923 54.5639 147.491C54.8679 148.593 54.8396 150.792 54.7985 152.822C54.7863 153.43 54.2309 153.918 53.5488 153.915L47.8428 153.89C47.1414 153.89 46.5571 153.412 46.4876 152.789L45.9611 148.004C45.9097 147.509 46.3199 147.069 46.8753 147.028Z" fill="white"/>
<g opacity="0.6">
<path opacity="0.6" d="M60.7076 151.022C60.8103 151.402 61.0366 151.738 61.3508 151.975C61.6651 152.213 62.0495 152.339 62.4434 152.333L128.5 151.426C128.856 151.424 129.196 151.28 129.445 151.027C129.695 150.774 129.833 150.432 129.831 150.076C129.828 149.721 129.685 149.381 129.432 149.131C129.178 148.882 128.836 148.743 128.481 148.746L62.4176 148.788C62.1456 148.788 61.8773 148.851 61.6335 148.972C61.3896 149.092 61.1768 149.267 61.0115 149.483C60.8461 149.699 60.7327 149.95 60.68 150.217C60.6274 150.484 60.6368 150.759 60.7076 151.022Z" fill="white"/>
</g>
<path d="M47.1838 147.966C47.3095 147.891 47.4487 147.843 47.5934 147.823C47.7382 147.803 47.8854 147.812 48.0265 147.85C48.1676 147.888 48.2997 147.953 48.4151 148.043C48.5305 148.133 48.6268 148.244 48.6984 148.372L50.1198 150.889C50.1518 150.946 50.199 150.993 50.2562 151.024C50.3133 151.056 50.3781 151.071 50.4433 151.068C50.5085 151.064 50.5715 151.043 50.6253 151.006C50.6791 150.969 50.7215 150.918 50.7478 150.858L54.2006 143.064C54.3729 142.675 54.9508 142.803 54.947 143.228C54.9232 145.607 54.3157 150.132 50.535 153.936C50.535 153.936 48.4361 153.133 46.7306 149.436C46.611 149.178 46.5911 148.886 46.6748 148.614C46.7585 148.342 46.9398 148.112 47.1838 147.966Z" fill="url(#paint12_linear_20_1512)"/>
<path d="M36.85 21.3564C36.8442 20.8667 36.9437 20.3814 37.1417 19.9335C37.3398 19.4855 37.6317 19.0853 37.9978 18.76C38.3638 18.4346 38.7955 18.1917 39.2636 18.0476C39.7317 17.9035 40.2253 17.8616 40.711 17.9248C54.3929 19.7081 101.439 25.2 140.295 22.0115C140.716 21.9762 141.139 22.0254 141.54 22.1561C141.941 22.2869 142.312 22.4966 142.631 22.7729C142.95 23.0491 143.21 23.3864 143.397 23.7649C143.583 24.1433 143.692 24.5552 143.717 24.9763L152.224 170.743C152.281 171.703 151.955 172.646 151.318 173.367C150.681 174.087 149.785 174.526 148.826 174.588C132.482 175.64 65.1711 179.731 41.1423 177.341C40.4361 177.27 39.7809 176.941 39.3021 176.417C38.8234 175.893 38.5548 175.21 38.5478 174.501L36.85 21.3564Z" fill="#7D97F4"/>
<path d="M38.477 25.0014C38.4715 24.5301 38.5673 24.0632 38.7579 23.6321C38.9485 23.2011 39.2294 22.816 39.5817 22.503C39.934 22.1899 40.3495 21.9562 40.8 21.8176C41.2504 21.679 41.7254 21.6388 42.1928 21.6997C55.3591 23.4155 100.634 28.6985 138.027 25.6321C138.432 25.5982 138.839 25.6455 139.225 25.7714C139.611 25.8973 139.968 26.0991 140.275 26.3649C140.581 26.6307 140.832 26.9553 141.011 27.3194C141.191 27.6835 141.296 28.0798 141.32 28.4851L149.507 168.76C149.561 169.684 149.248 170.591 148.635 171.285C148.022 171.978 147.16 172.401 146.236 172.46C130.507 173.473 65.7316 177.41 42.6074 175.109C41.9278 175.041 41.2973 174.724 40.8366 174.22C40.3759 173.715 40.1174 173.059 40.1105 172.376L38.477 25.0014Z" fill="#BDD0FB"/>
<path d="M62.3464 112.238H62.3271L55.1869 112.207C54.1666 112.202 53.3226 111.505 53.2197 110.585L52.5608 104.597C52.5421 104.422 52.5593 104.245 52.6114 104.076C52.6634 103.908 52.7492 103.751 52.8636 103.617C53 103.458 53.1671 103.327 53.3548 103.234C53.5425 103.14 53.7471 103.085 53.9564 103.072C54.5575 103.028 55.4041 102.952 56.3009 102.871C58.1884 102.7 60.5374 102.485 61.8597 102.464C62.8189 102.454 63.6359 103.018 63.8661 103.852C64.2454 105.225 64.2261 107.828 64.1695 110.602C64.1483 111.503 63.3338 112.233 62.3464 112.238ZM53.9931 103.619C53.8579 103.627 53.7258 103.662 53.6043 103.722C53.4829 103.782 53.3747 103.865 53.2859 103.967C53.2189 104.045 53.1685 104.136 53.1377 104.234C53.1068 104.332 53.0963 104.435 53.1066 104.538L53.7655 110.525C53.8362 111.167 54.4489 111.655 55.1901 111.659L62.3303 111.69H62.3444C63.0362 111.686 63.607 111.196 63.6192 110.591C63.6745 107.859 63.6944 105.3 63.3351 103.998C63.1737 103.415 62.5637 103.011 61.8668 103.012C60.5644 103.035 58.2263 103.247 56.3479 103.416C55.4479 103.498 54.5999 103.575 53.9937 103.619H53.9931Z" fill="white"/>
<path opacity="0.6" d="M54.7643 104.234C56.2641 104.123 59.5215 103.775 61.0682 103.748C61.7233 103.736 62.2999 104.129 62.4561 104.696C62.7609 105.798 62.7326 107.997 62.6914 110.028C62.6786 110.636 62.1231 111.124 61.4411 111.12L55.7357 111.095C55.0337 111.095 54.45 110.617 54.3799 109.994L53.8534 105.21C53.7994 104.715 54.2089 104.271 54.7643 104.234Z" fill="white"/>
<g opacity="0.6">
<path opacity="0.6" d="M68.5968 108.228C68.6994 108.609 68.9257 108.944 69.24 109.181C69.5543 109.419 69.9387 109.545 70.3325 109.54L136.389 108.633C136.745 108.63 137.085 108.486 137.334 108.233C137.584 107.98 137.723 107.638 137.72 107.283C137.718 106.927 137.574 106.587 137.321 106.338C137.068 106.088 136.726 105.949 136.37 105.952L70.3068 105.994C70.0348 105.995 69.7665 106.057 69.5226 106.178C69.2788 106.298 69.066 106.473 68.9006 106.689C68.7353 106.905 68.6219 107.157 68.5692 107.423C68.5165 107.69 68.526 107.966 68.5968 108.228Z" fill="white"/>
</g>
<path d="M62.426 130.027H62.4067L55.2665 129.996C54.2462 129.991 53.4022 129.294 53.2993 128.374L52.6404 122.386C52.6217 122.211 52.6389 122.033 52.6909 121.865C52.743 121.696 52.8288 121.54 52.9432 121.406C53.0796 121.246 53.2466 121.116 53.4343 121.022C53.622 120.929 53.8266 120.874 54.036 120.861C54.6371 120.817 55.4837 120.74 56.3799 120.659C58.268 120.488 60.617 120.274 61.9393 120.252H61.9676C62.9068 120.247 63.7175 120.815 63.9457 121.641C64.325 123.014 64.3057 125.617 64.2491 128.391C64.2279 129.292 63.4134 130.022 62.426 130.027ZM54.0727 121.408C53.9375 121.416 53.8054 121.451 53.684 121.511C53.5626 121.57 53.4543 121.654 53.3655 121.756C53.2986 121.834 53.2483 121.925 53.2176 122.023C53.1869 122.121 53.1764 122.224 53.1868 122.326L53.8457 128.313C53.9164 128.956 54.5291 129.444 55.2703 129.447L62.4105 129.479H62.4247C63.1164 129.475 63.6866 128.984 63.6995 128.379C63.7547 125.648 63.7747 123.089 63.4153 121.786C63.254 121.203 62.6349 120.787 61.947 120.801C60.6446 120.824 58.3065 121.035 56.4275 121.205C55.5274 121.286 54.6802 121.363 54.0739 121.408H54.0727Z" fill="white"/>
<path opacity="0.6" d="M54.8441 122.022C56.3433 121.912 59.6013 121.564 61.148 121.536C61.8031 121.525 62.3797 121.917 62.5359 122.485C62.84 123.587 62.8124 125.786 62.7712 127.816C62.7584 128.424 62.2029 128.912 61.5209 128.909L55.8149 128.884C55.1135 128.884 54.5292 128.406 54.4597 127.783L53.9332 122.999C53.8792 122.504 54.2913 122.063 54.8441 122.022Z" fill="white"/>
<g opacity="0.6">
<path opacity="0.6" d="M68.6765 126.016C68.7789 126.397 69.0051 126.732 69.3194 126.97C69.6337 127.207 70.0182 127.334 70.4122 127.328L136.469 126.421C136.645 126.42 136.819 126.384 136.981 126.316C137.143 126.247 137.29 126.147 137.414 126.022C137.538 125.896 137.635 125.748 137.701 125.585C137.768 125.422 137.801 125.247 137.8 125.071C137.798 124.895 137.763 124.721 137.694 124.559C137.626 124.397 137.526 124.25 137.4 124.126C137.275 124.003 137.127 123.905 136.963 123.839C136.8 123.773 136.626 123.739 136.45 123.741L70.3865 123.783C70.1145 123.783 69.8463 123.846 69.6025 123.966C69.3587 124.087 69.1459 124.262 68.9806 124.478C68.8153 124.694 68.7019 124.945 68.6491 125.212C68.5964 125.478 68.6057 125.754 68.6765 126.016Z" fill="white"/>
</g>
<path d="M62.5058 148.564H62.4865L55.3463 148.533C54.326 148.529 53.482 147.831 53.3791 146.911L52.7202 140.924C52.7015 140.748 52.7187 140.571 52.7708 140.402C52.8228 140.234 52.9086 140.077 53.023 139.943C53.1593 139.784 53.3263 139.653 53.5141 139.56C53.7018 139.466 53.9065 139.411 54.1158 139.398C54.7169 139.354 55.5635 139.278 56.4597 139.197C58.3471 139.026 60.6968 138.811 62.0185 138.79H62.0474C62.9866 138.785 63.7973 139.353 64.0255 140.179C64.4048 141.552 64.3855 144.155 64.3289 146.929C64.3077 147.826 63.4932 148.556 62.5058 148.564ZM54.1525 139.945C54.0174 139.953 53.8852 139.988 53.7638 140.048C53.6424 140.108 53.5341 140.191 53.4453 140.293C53.3785 140.371 53.3282 140.462 53.2975 140.56C53.2667 140.658 53.2563 140.761 53.2666 140.864L53.9256 146.851C53.9963 147.494 54.6089 147.982 55.3501 147.984L62.4903 148.016H62.5045C63.1962 148.012 63.7664 147.522 63.7793 146.917C63.8346 144.186 63.8545 141.626 63.4951 140.324C63.3338 139.74 62.7147 139.321 62.0268 139.338C60.7244 139.361 58.3863 139.573 56.5073 139.742C55.6073 139.824 54.7593 139.901 54.1538 139.945H54.1525Z" fill="white"/>
<path opacity="0.6" d="M54.9239 140.556C56.423 140.446 59.681 140.098 61.2277 140.071C61.8828 140.059 62.4595 140.452 62.6157 141.019C62.9197 142.121 62.8921 144.32 62.8503 146.35C62.8381 146.959 62.2827 147.447 61.6006 147.443L55.8946 147.418C55.1932 147.418 54.6089 146.939 54.5394 146.317L54.0129 141.532C53.9583 141.038 54.3678 140.598 54.9239 140.556Z" fill="white"/>
<g opacity="0.6">
<path opacity="0.6" d="M68.7555 144.551C68.8581 144.931 69.0844 145.267 69.3987 145.504C69.713 145.742 70.0973 145.868 70.4912 145.862L136.548 144.955C136.904 144.953 137.243 144.809 137.493 144.556C137.743 144.303 137.881 143.961 137.879 143.605C137.876 143.25 137.733 142.91 137.479 142.66C137.226 142.411 136.884 142.272 136.529 142.275L70.4655 142.317C70.1935 142.317 69.9252 142.38 69.6813 142.501C69.4375 142.621 69.2247 142.796 69.0593 143.012C68.894 143.228 68.7806 143.479 68.7279 143.746C68.6752 144.013 68.6847 144.288 68.7555 144.551Z" fill="white"/>
</g>
<path d="M63.0831 167.095H63.0631L55.9229 167.064C54.9034 167.06 54.0586 166.362 53.9558 165.442L53.2969 159.455C53.2782 159.279 53.2954 159.102 53.3475 158.933C53.3995 158.765 53.4853 158.608 53.5996 158.474C53.736 158.315 53.9031 158.184 54.0908 158.091C54.2785 157.997 54.4831 157.942 54.6925 157.929C55.2936 157.885 56.1402 157.809 57.037 157.728C58.9244 157.557 61.2734 157.342 62.5958 157.321H62.6247C63.5633 157.316 64.3739 157.884 64.6021 158.71C64.9814 160.083 64.9621 162.687 64.9056 165.46C64.8844 166.36 64.0699 167.09 63.0831 167.095ZM54.7298 158.477C54.5946 158.484 54.4624 158.519 54.341 158.579C54.2195 158.639 54.1113 158.723 54.0226 158.825C53.9557 158.903 53.9052 158.993 53.8744 159.091C53.8436 159.189 53.833 159.292 53.8433 159.395L54.5022 165.382C54.5729 166.025 55.1856 166.513 55.9268 166.516L63.067 166.547H63.0811C63.7735 166.544 64.3437 166.053 64.3559 165.448C64.4112 162.717 64.4311 160.157 64.0718 158.855C63.9104 158.271 63.292 157.851 62.6035 157.869C61.3011 157.892 58.963 158.104 57.0846 158.273C56.1846 158.355 55.3366 158.432 54.7311 158.477H54.7298Z" fill="white"/>
<path opacity="0.6" d="M55.5005 159.091C57.0003 158.981 60.2577 158.632 61.8044 158.605C62.4594 158.594 63.0361 158.986 63.1923 159.553C63.497 160.655 63.4687 162.855 63.4276 164.885C63.4154 165.493 62.8593 165.981 62.1772 165.978L56.4719 165.952C55.7699 165.952 55.1861 165.474 55.1167 164.851L54.5902 160.066C54.5356 159.572 54.9451 159.132 55.5005 159.091Z" fill="white"/>
<g opacity="0.6">
<path opacity="0.6" d="M69.3341 163.085C69.4367 163.466 69.663 163.801 69.9773 164.038C70.2916 164.276 70.676 164.402 71.0698 164.397L137.127 163.49C137.482 163.487 137.822 163.344 138.072 163.09C138.321 162.837 138.46 162.495 138.458 162.14C138.455 161.784 138.312 161.444 138.059 161.195C137.805 160.945 137.464 160.806 137.108 160.809L71.0441 160.851C70.7721 160.851 70.5038 160.914 70.2599 161.035C70.0161 161.155 69.8033 161.33 69.6379 161.546C69.4726 161.762 69.3592 162.013 69.3065 162.28C69.2538 162.547 69.2633 162.823 69.3341 163.085Z" fill="white"/>
</g>
<path d="M55.8097 160.029C55.935 159.954 56.074 159.905 56.2186 159.884C56.3632 159.864 56.5103 159.873 56.6514 159.911C56.7924 159.948 56.9245 160.014 57.0399 160.103C57.1552 160.193 57.2515 160.304 57.323 160.432L58.745 162.949C58.777 163.006 58.8242 163.053 58.8813 163.084C58.9384 163.116 59.0032 163.131 59.0683 163.128C59.1335 163.125 59.1966 163.104 59.2504 163.067C59.3042 163.03 59.3467 162.979 59.3731 162.919L62.8252 155.124C62.9975 154.735 63.5761 154.863 63.5716 155.289C63.5484 157.667 62.9409 162.192 59.1596 165.996C59.1596 165.996 57.0613 165.193 55.3552 161.496C55.2365 161.239 55.2173 160.946 55.3012 160.675C55.3851 160.404 55.5662 160.174 55.8097 160.029Z" fill="url(#paint13_linear_20_1512)"/>
<path d="M54.9341 140.885C55.0595 140.81 55.1986 140.761 55.3433 140.741C55.488 140.72 55.6352 140.729 55.7763 140.767C55.9175 140.805 56.0496 140.87 56.165 140.96C56.2804 141.049 56.3766 141.161 56.4481 141.288L57.8694 143.805C57.9014 143.862 57.9486 143.909 58.0057 143.941C58.0628 143.972 58.1276 143.987 58.1928 143.984C58.258 143.981 58.321 143.96 58.3748 143.923C58.4286 143.886 58.4711 143.835 58.4975 143.775L61.9503 135.98C62.1226 135.591 62.7005 135.719 62.6966 136.145C62.6735 138.524 62.0653 143.048 58.2847 146.852C58.2847 146.852 56.1864 146.049 54.4803 142.352C54.3614 142.095 54.342 141.803 54.4258 141.532C54.5096 141.261 54.6906 141.03 54.9341 140.885Z" fill="url(#paint14_linear_20_1512)"/>
<path d="M54.9341 122.383C55.0595 122.308 55.1986 122.259 55.3433 122.239C55.488 122.218 55.6352 122.227 55.7763 122.265C55.9175 122.303 56.0496 122.368 56.165 122.458C56.2804 122.547 56.3766 122.659 56.4481 122.787L57.8694 125.303C57.9014 125.36 57.9486 125.407 58.0057 125.439C58.0628 125.47 58.1276 125.485 58.1928 125.482C58.258 125.479 58.321 125.458 58.3748 125.421C58.4286 125.384 58.4711 125.333 58.4975 125.273L61.9503 117.478C62.1226 117.09 62.7005 117.217 62.6966 117.643C62.6735 120.022 62.0653 124.547 58.2847 128.35C58.2847 128.35 56.1864 127.548 54.4803 123.85C54.3614 123.593 54.342 123.301 54.4258 123.03C54.5096 122.759 54.6906 122.528 54.9341 122.383Z" fill="url(#paint15_linear_20_1512)"/>
<path d="M62.3269 99.8506C62.4986 99.4649 63.0772 99.5896 63.0733 100.015C63.0495 102.394 62.442 106.918 58.6614 110.723C58.6614 110.723 56.5624 109.92 54.8569 106.223C54.7375 105.965 54.7178 105.672 54.8016 105.401C54.8855 105.129 55.0668 104.899 55.3108 104.753C55.4363 104.679 55.5753 104.63 55.7199 104.61C55.8644 104.59 56.0115 104.599 56.1525 104.636C56.2935 104.674 56.4256 104.739 56.5411 104.828C56.6565 104.918 56.7529 105.029 56.8247 105.156L58.2461 107.674C58.2781 107.73 58.3253 107.777 58.3824 107.809C58.4395 107.84 58.5043 107.855 58.5695 107.852C58.6346 107.849 58.6977 107.828 58.7515 107.791C58.8053 107.754 58.8478 107.703 58.8742 107.643L62.3269 99.8506Z" fill="url(#paint16_linear_20_1512)"/>
<path d="M60.9223 57.2663H60.903L53.7628 57.2348C52.7426 57.2303 51.8985 56.5328 51.7956 55.6123L51.1367 49.6285C51.118 49.4531 51.1352 49.2758 51.1873 49.1072C51.2393 48.9387 51.3251 48.7825 51.4395 48.6482C51.5755 48.4892 51.742 48.359 51.9292 48.2654C52.1163 48.1718 52.3203 48.1166 52.5291 48.103C53.1302 48.0587 53.9769 47.9822 54.8736 47.9012C56.7611 47.7308 59.1101 47.5187 60.4324 47.4949H60.4607C61.3999 47.4904 62.2106 48.058 62.4388 48.8835C62.8181 50.2566 62.7988 52.8602 62.7422 55.6335C62.7242 56.5316 61.9097 57.2612 60.9223 57.2663ZM52.569 48.6475C52.4339 48.6556 52.3017 48.6906 52.1803 48.7504C52.0588 48.8102 51.9506 48.8937 51.8619 48.996C51.7951 49.0739 51.7448 49.1645 51.7141 49.2624C51.6834 49.3603 51.6729 49.4635 51.6831 49.5655L52.3421 55.5531C52.4128 56.196 53.0254 56.6839 53.7666 56.6871L60.9069 56.7186H60.921C61.6127 56.7148 62.1836 56.2243 62.1958 55.6193C62.2511 52.8878 62.271 50.3286 61.9117 49.0262C61.7503 48.4431 61.1312 48.0259 60.4434 48.0407C59.1409 48.0638 56.8029 48.2753 54.9238 48.445C54.0238 48.526 53.1765 48.6025 52.5703 48.6475H52.569Z" fill="white"/>
<path opacity="0.6" d="M53.3405 49.2617C54.8397 49.1518 58.0977 48.804 59.6444 48.7764C60.2995 48.7648 60.8761 49.1576 61.0323 49.7252C61.3364 50.8264 61.3087 53.0263 61.2676 55.0565C61.2547 55.664 60.6993 56.1493 60.0172 56.1493L54.3112 56.1242C53.6099 56.1242 53.0255 55.646 52.9561 55.023L52.4296 50.2382C52.3756 49.7439 52.7851 49.3029 53.3405 49.2617Z" fill="white"/>
<g opacity="0.6">
<path opacity="0.6" d="M67.1729 53.2561C67.2752 53.6366 67.5014 53.9721 67.8158 54.2096C68.1301 54.4471 68.5147 54.573 68.9086 54.5675L134.965 53.6611C135.316 53.6513 135.649 53.5045 135.893 53.2521C136.137 52.9997 136.272 52.6618 136.269 52.311C136.267 51.9601 136.127 51.6242 135.879 51.3754C135.632 51.1265 135.297 50.9845 134.946 50.9797L68.8829 51.0222C68.6109 51.0225 68.3427 51.0854 68.0989 51.2059C67.8551 51.3265 67.6424 51.5015 67.4771 51.7175C67.3117 51.9334 67.1983 52.1845 67.1456 52.4513C67.0929 52.7181 67.1022 52.9935 67.1729 53.2561Z" fill="white"/>
</g>
<g opacity="0.6">
<path opacity="0.6" d="M57.5222 37.3097C57.7151 38.5054 58.4158 39.3418 59.2265 39.3411L125.293 39.2936C126.041 39.2936 126.65 38.3627 126.647 37.2249C126.647 36.1191 126.064 35.2269 125.338 35.2127L59.2856 33.9431C58.1195 33.9219 57.2484 35.5894 57.5222 37.3097Z" fill="white"/>
</g>
<path d="M61.0021 75.8013H60.9828L53.8426 75.7698C52.8224 75.7653 51.9783 75.0684 51.8754 74.1479L51.2165 68.1603C51.1979 67.9849 51.2151 67.8075 51.2672 67.639C51.3192 67.4705 51.405 67.3143 51.5193 67.1799C51.6553 67.0209 51.8218 66.8908 52.009 66.7971C52.1961 66.7035 52.4001 66.6483 52.6089 66.6348C53.21 66.5911 54.0566 66.5139 54.9528 66.4329C56.8402 66.2626 59.1899 66.0472 60.5122 66.0266H60.5405C61.4797 66.0215 62.2904 66.5892 62.5186 67.4146C62.8979 68.7884 62.8786 71.3913 62.822 74.1646C62.804 75.0659 61.9895 75.7962 61.0021 75.8013ZM52.6488 67.1819C52.5136 67.1899 52.3814 67.2248 52.26 67.2846C52.1386 67.3445 52.0303 67.428 51.9416 67.5303C51.8747 67.6082 51.8243 67.699 51.7936 67.797C51.7629 67.895 51.7524 67.9983 51.7629 68.1005L52.4219 74.0874C52.4926 74.7303 53.1052 75.2182 53.8464 75.2214L60.9866 75.2529H61.0008C61.6925 75.2491 62.2627 74.7586 62.2756 74.1537C62.3309 71.4222 62.3508 68.8629 61.9914 67.5605C61.8301 66.9774 61.211 66.5583 60.5231 66.575C59.2207 66.5981 56.8826 66.8097 55.0036 66.9794C54.1036 67.0604 53.2556 67.1375 52.6501 67.1819H52.6488Z" fill="white"/>
<path opacity="0.6" d="M53.4202 67.7965C54.9194 67.686 58.1774 67.3382 59.7241 67.3106C60.3792 67.299 60.9558 67.6918 61.112 68.2594C61.4161 69.3613 61.3884 71.5605 61.3467 73.5906C61.3344 74.1988 60.779 74.6835 60.0969 74.6835L54.3909 74.6584C53.6896 74.6584 53.1052 74.1801 53.0358 73.5572L52.5093 68.7731C52.4546 68.2781 52.8641 67.837 53.4202 67.7965Z" fill="white"/>
<g opacity="0.6">
<path opacity="0.6" d="M67.2526 71.7906C67.355 72.1711 67.5812 72.5066 67.8955 72.7442C68.2098 72.9818 68.5943 73.108 68.9883 73.1027L135.046 72.1931C135.397 72.1833 135.729 72.0365 135.973 71.7841C136.217 71.5317 136.352 71.1938 136.349 70.8429C136.347 70.4921 136.207 70.1562 135.96 69.9074C135.712 69.6585 135.377 69.5165 135.027 69.5117L68.9632 69.5541C68.6909 69.5542 68.4223 69.6171 68.1782 69.7378C67.9341 69.8584 67.7211 70.0337 67.5556 70.25C67.3902 70.4663 67.2768 70.7178 67.2243 70.9849C67.1717 71.2521 67.1814 71.5278 67.2526 71.7906Z" fill="white"/>
</g>
<path d="M61.5793 94.3354H61.5594L54.4198 94.3072C53.4002 94.3027 52.5555 93.6058 52.4527 92.6852L51.7944 86.6983C51.7754 86.5228 51.7924 86.3453 51.8444 86.1767C51.8963 86.008 51.9821 85.8517 52.0965 85.7173C52.233 85.558 52.4 85.4276 52.5877 85.334C52.7754 85.2404 52.98 85.1853 53.1894 85.1721C53.7904 85.1284 54.6371 85.0513 55.5339 84.9709C57.4213 84.7999 59.7703 84.5852 61.0927 84.564H61.1216C62.0602 84.5589 62.8708 85.1265 63.099 85.9526C63.4783 87.3257 63.459 89.9287 63.4031 92.7026C63.3806 93.6 62.5661 94.3303 61.5793 94.3354ZM53.226 85.716C53.0908 85.7239 52.9586 85.7588 52.8372 85.8187C52.7157 85.8785 52.6075 85.9621 52.5189 86.0644C52.4518 86.1423 52.4014 86.2331 52.3705 86.3311C52.3397 86.4291 52.3292 86.5324 52.3395 86.6346L52.9984 92.6216C53.0692 93.2644 53.6818 93.7524 54.423 93.7556L61.5632 93.7871H61.5774C62.2697 93.7832 62.84 93.2927 62.8522 92.6878C62.9075 89.9563 62.9274 87.3971 62.568 86.0946C62.4067 85.5116 61.7882 85.0905 61.0997 85.1091C59.7973 85.1323 57.4592 85.3438 55.5808 85.5135C54.6808 85.5945 53.8329 85.6716 53.2273 85.716H53.226Z" fill="white"/>
<path opacity="0.6" d="M53.9968 86.3307C55.4966 86.2202 58.754 85.8724 60.3007 85.8447C60.9558 85.8332 61.5324 86.2259 61.6886 86.7936C61.9933 87.8954 61.9651 90.0947 61.9239 92.1248C61.9117 92.733 61.3556 93.2177 60.6736 93.2177L54.9682 93.1926C54.2662 93.1926 53.6825 92.7143 53.6131 92.0914L53.0866 87.3072C53.0319 86.8122 53.4414 86.3712 53.9968 86.3307Z" fill="white"/>
<g opacity="0.6">
<path opacity="0.6" d="M67.8293 90.3255C67.9319 90.7058 68.1582 91.0411 68.4725 91.2785C68.7867 91.516 69.1711 91.6421 69.565 91.6369L135.622 90.7298C135.977 90.7273 136.317 90.5838 136.567 90.3306C136.817 90.0775 136.955 89.7356 136.953 89.3801C136.95 89.0247 136.807 88.6847 136.554 88.4351C136.301 88.1855 135.959 88.0466 135.603 88.0491L69.5393 88.0915C69.2673 88.0918 68.9991 88.1547 68.7553 88.2753C68.5115 88.3959 68.2987 88.5709 68.1334 88.7868C67.9681 89.0028 67.8547 89.2539 67.802 89.5207C67.7492 89.7875 67.7586 90.0629 67.8293 90.3255Z" fill="white"/>
</g>
<path d="M162.845 116.614C162.948 116.896 167.056 108.766 167.056 108.766L157.856 102.911L162.272 92.1615L151.407 85.9097L165.17 91.975L161.134 101.554C161.134 101.554 172.915 108.662 172.759 108.768C172.603 108.874 162.845 116.614 162.845 116.614Z" fill="url(#paint17_linear_20_1512)"/>
<path d="M177.917 0C177.539 0.257143 169.938 13.5958 169.938 13.5958L162.174 6.51858C162.174 6.51858 149.465 20.9829 149.653 20.2295C149.842 19.476 160.804 1.62643 160.804 1.62643L169.826 11.2963L177.917 0Z" fill="url(#paint18_linear_20_1512)"/>
<path d="M72.6294 0.128662C72.8339 0.544591 85.2217 10.0544 85.2217 10.0544L77.0144 16.8938C77.0144 16.8938 89.8246 31.7058 89.0924 31.4108C88.3602 31.1157 71.8947 17.5958 71.8947 17.5958L82.8875 9.8461L72.6294 0.128662Z" fill="url(#paint19_linear_20_1512)"/>
<path d="M48.9935 73.878C49.8292 74.3486 64.1875 72.996 64.1875 72.996L62.4968 62.9675C62.4968 62.9675 79.681 60.7252 79.5601 60.9656C79.4393 61.206 58.603 59.7725 58.603 59.7725L61.3139 70.53L48.9935 73.878Z" fill="url(#paint20_linear_20_1512)"/>
<path d="M140.156 179.146C141.669 179.274 144.295 179.489 146.366 179.58C147.61 179.635 148.327 179.516 148.74 179.348C148.74 179.394 148.739 179.437 148.736 179.476C148.73 179.582 148.685 179.682 148.61 179.757C148.535 179.831 148.435 179.876 148.329 179.881C145.621 180.035 142.906 180.038 140.198 179.889C140.145 179.886 140.095 179.87 140.05 179.843C140.006 179.815 139.969 179.776 139.944 179.73C139.919 179.684 139.907 179.632 139.908 179.58C139.908 179.528 139.923 179.476 139.949 179.431C140.011 179.331 140.08 179.236 140.156 179.146Z" fill="url(#paint21_linear_20_1512)"/>
<path d="M146.366 179.58C144.295 179.489 141.669 179.276 140.156 179.146C141.643 177.32 146.366 176.09 146.366 176.09H147.698C148.616 177.412 148.748 178.671 148.739 179.348C148.327 179.513 147.61 179.635 146.366 179.58Z" fill="url(#paint22_linear_20_1512)"/>
<path d="M147.924 173.912L147.799 176.382C147.793 176.513 147.741 176.637 147.654 176.734C147.566 176.831 147.447 176.894 147.318 176.913C146.982 176.963 146.639 176.935 146.316 176.83C146.201 176.793 146.099 176.726 146.02 176.635C145.941 176.545 145.888 176.434 145.866 176.316L145.435 173.911L147.924 173.912Z" fill="url(#paint23_linear_20_1512)"/>
<path d="M165.248 179.562C165.904 179.47 166.201 179.129 166.326 178.765C166.326 178.765 166.326 178.771 166.326 178.774C166.422 179.16 166.197 179.557 165.751 179.747C165.21 179.976 164.619 180.015 164.16 179.996C163.667 179.976 163.215 179.772 162.966 179.445L162.963 179.441C163.459 179.685 164.156 179.714 165.248 179.562Z" fill="url(#paint24_linear_20_1512)"/>
<path d="M162.154 173.897H163.256C164.931 173.863 165.983 177.396 166.327 178.765C166.203 179.129 165.906 179.472 165.25 179.562C164.157 179.714 163.461 179.685 162.967 179.441C162.062 178.25 161.613 176.505 161.397 175.487C161.15 174.33 162.154 173.897 162.154 173.897Z" fill="url(#paint25_linear_20_1512)"/>
<path d="M163.112 171.604L163.723 174.034C163.759 174.179 163.744 174.332 163.682 174.467C163.62 174.603 163.513 174.714 163.38 174.781C163.038 174.956 162.557 175.14 162.115 175.087C162.014 175.074 161.917 175.032 161.838 174.968C161.758 174.903 161.699 174.817 161.665 174.72L160.769 172.164L163.112 171.604Z" fill="url(#paint26_linear_20_1512)"/>
<path d="M163.841 172.306C163.081 172.981 160.609 173.07 160.609 173.07C151.706 151.701 148.064 148.665 148.064 148.665C149.349 156.731 148.271 174.587 148.271 174.587C146.802 175.235 144.908 174.587 144.908 174.587C144.799 163.175 143.272 151.821 140.362 140.786C146.379 140.651 149.579 138.592 150.624 137.764C155.64 145.854 163.841 172.306 163.841 172.306Z" fill="url(#paint27_linear_20_1512)"/>
<path d="M149.096 113.194C150.235 118.875 149.826 129.043 149.558 133.682C149.483 134.985 150.394 136.793 151.128 138.026C151.156 138.071 151.174 138.122 151.181 138.174C151.187 138.227 151.184 138.28 151.169 138.332C151.154 138.383 151.129 138.43 151.095 138.471C151.061 138.512 151.019 138.545 150.972 138.569C149.741 139.202 145.569 141.164 140.734 141.408C140.577 141.414 140.422 141.366 140.296 141.273C140.17 141.179 140.079 141.045 140.04 140.893C136.453 127.501 132.287 118.944 132.287 118.944C136.886 111.6 149.096 113.194 149.096 113.194Z" fill="url(#paint28_linear_20_1512)"/>
<path d="M147.456 148.16C147.506 148.159 147.555 148.145 147.598 148.12C147.641 148.094 147.677 148.058 147.702 148.014C147.726 147.97 147.739 147.921 147.738 147.871C147.738 147.821 147.724 147.772 147.699 147.729C147.65 147.65 146.499 145.789 144.169 144.664C144.135 144.648 144.098 144.639 144.061 144.636C144.023 144.634 143.986 144.64 143.95 144.652C143.915 144.664 143.882 144.683 143.854 144.708C143.826 144.733 143.804 144.764 143.787 144.797C143.771 144.831 143.762 144.868 143.759 144.905C143.757 144.943 143.763 144.98 143.775 145.016C143.787 145.051 143.807 145.084 143.832 145.112C143.856 145.14 143.887 145.162 143.92 145.179C146.093 146.227 147.199 148.007 147.211 148.026C147.237 148.068 147.274 148.102 147.316 148.125C147.359 148.148 147.407 148.16 147.456 148.16Z" fill="url(#paint29_linear_20_1512)"/>
<path d="M156.24 129.499C155.874 132.145 154.793 135.032 152.631 138.099L151.809 137.429C151.809 137.429 152.758 133.579 152.218 129.209C153.552 128.95 155.128 129.218 156.24 129.499Z" fill="url(#paint30_linear_20_1512)"/>
<path d="M147.823 120.203L149.095 113.196C149.095 113.196 157.595 119.694 156.24 129.501C155.127 129.22 153.552 128.952 152.218 129.212C151.83 126.064 150.669 122.645 147.823 120.203Z" fill="url(#paint31_linear_20_1512)"/>
<path d="M132.287 118.943L135.566 126.009C135.036 130.275 132.744 132.116 130.273 132.827C130.151 131.244 129.78 129.691 129.171 128.225C132.33 124.965 132.287 118.943 132.287 118.943Z" fill="url(#paint32_linear_20_1512)"/>
<path d="M129.173 128.225C129.782 129.691 130.153 131.244 130.275 132.827C123.683 135.385 121.938 130.424 121.938 130.424L123.159 130.209C125.906 130.5 127.83 129.612 129.173 128.225Z" fill="url(#paint33_linear_20_1512)"/>
<path d="M135.31 110.219L136.894 116.042C136.936 116.196 137.01 116.339 137.111 116.463C137.213 116.586 137.339 116.687 137.482 116.758C137.625 116.829 137.782 116.87 137.941 116.876C138.101 116.883 138.26 116.855 138.409 116.796C139.188 116.49 139.95 116.142 140.691 115.753C140.878 115.651 141.042 115.512 141.172 115.344C141.302 115.175 141.395 114.981 141.446 114.775C141.496 114.568 141.503 114.353 141.466 114.144C141.429 113.935 141.348 113.735 141.229 113.559L137.936 108.649L135.31 110.219Z" fill="url(#paint34_linear_20_1512)"/>
<path d="M131.844 105.795C131.83 105.895 133.165 112.44 133.165 112.44L136.886 111.597L136.542 105.207C136.542 105.207 132.086 104.121 131.844 105.795Z" fill="url(#paint35_linear_20_1512)"/>
<path d="M135.705 106.631L136.15 109.981C136.156 110.024 136.156 110.067 136.15 110.11C136.113 110.373 135.918 111.267 135.015 111.01C134.196 110.778 133.445 110.578 132.926 110.737C132.815 110.772 132.72 110.847 132.66 110.948C132.601 111.049 132.581 111.168 132.605 111.283C132.726 111.877 133.025 113.211 133.461 114.332C133.505 114.442 133.587 114.531 133.693 114.582C133.799 114.634 133.92 114.644 134.033 114.611C134.74 114.405 136.215 113.929 137.312 113.268C137.385 113.225 137.445 113.162 137.485 113.088C137.526 113.013 137.545 112.928 137.541 112.843C137.506 111.998 137.407 109.427 137.491 108.707C137.568 108.03 138.398 107.625 138.76 107.479C138.818 107.456 138.87 107.421 138.915 107.377C138.959 107.333 138.993 107.28 139.017 107.222C139.184 106.804 139.414 105.835 138.194 105.438C138.133 105.419 138.077 105.387 138.029 105.346C137.981 105.304 137.942 105.253 137.914 105.196C137.886 105.139 137.87 105.077 137.867 105.014C137.863 104.95 137.873 104.887 137.894 104.827C138.075 104.324 138.151 103.555 137.207 103.132C136.247 102.702 135.531 103.214 135.144 103.629C135.068 103.71 134.966 103.761 134.856 103.774C134.746 103.787 134.635 103.761 134.542 103.701C134.431 103.631 134.289 103.608 134.117 103.715C134.061 103.748 133.999 103.769 133.935 103.777C133.871 103.785 133.805 103.78 133.743 103.761C133.681 103.742 133.624 103.711 133.575 103.668C133.526 103.626 133.486 103.574 133.458 103.516C133.228 103.044 132.76 102.538 131.821 102.699C130.153 102.985 129.964 104.832 130.406 105.913C130.849 106.995 132.636 106.583 133.534 106.038C134.217 105.623 135.103 106.057 135.488 106.29C135.548 106.327 135.598 106.377 135.636 106.436C135.673 106.495 135.697 106.561 135.705 106.631Z" fill="url(#paint36_linear_20_1512)"/>
<path d="M137.637 109.929C137.637 109.929 136.952 108.009 137.657 107.539C138.361 107.069 139.404 107.313 139.174 108.703C138.892 110.433 137.637 109.929 137.637 109.929Z" fill="url(#paint37_linear_20_1512)"/>
<path d="M122.427 131.331C122.095 131.589 120.958 131.05 120.263 130.676C120.098 130.588 119.97 130.445 119.899 130.272C119.829 130.099 119.821 129.907 119.877 129.729C120.045 129.202 120.323 128.52 120.667 128.434C121.236 128.292 123.795 130.264 122.427 131.331Z" fill="url(#paint38_linear_20_1512)"/>
<path d="M178.403 147.365L91.5906 116.49L86.998 129.248L173.781 160.986C174.673 161.311 175.652 161.311 176.545 160.988C177.438 160.665 178.189 160.038 178.666 159.217C179.681 157.475 180.65 154.753 180.709 150.676C180.718 149.952 180.5 149.244 180.087 148.651C179.674 148.057 179.085 147.607 178.403 147.365Z" fill="url(#paint39_linear_20_1512)"/>
<path d="M64.7332 113.193L76.7251 114.665C76.7122 116.315 76.1722 118.451 74.3426 120.9L64.3282 114.294C63.7966 113.943 64.1013 113.115 64.7332 113.193Z" fill="url(#paint40_linear_20_1512)"/>
<path d="M91.5906 116.49C92.1403 124.486 86.9981 129.248 86.9981 129.248L74.3428 120.9C76.1723 118.45 76.7123 116.315 76.7252 114.665L91.5906 116.49Z" fill="url(#paint41_linear_20_1512)"/>
<path d="M177.327 151.277C177.385 151.275 177.442 151.252 177.486 151.213C177.53 151.175 177.559 151.122 177.569 151.064C177.579 151.006 177.569 150.946 177.54 150.895C177.512 150.843 177.466 150.803 177.411 150.782L94.3542 121.429C94.2931 121.416 94.2295 121.425 94.175 121.456C94.1206 121.487 94.0791 121.536 94.0584 121.595C94.0376 121.654 94.0389 121.718 94.0621 121.776C94.0853 121.834 94.1288 121.881 94.1845 121.91L177.242 151.262C177.269 151.272 177.298 151.277 177.327 151.277Z" fill="url(#paint42_linear_20_1512)"/>
<path d="M175.894 156.283C175.952 156.28 176.009 156.258 176.053 156.219C176.097 156.18 176.127 156.127 176.137 156.069C176.147 156.011 176.137 155.952 176.108 155.9C176.079 155.849 176.034 155.809 175.979 155.787L92.9218 126.434C92.8608 126.421 92.7971 126.431 92.7427 126.461C92.6882 126.492 92.6468 126.541 92.626 126.6C92.6052 126.659 92.6066 126.723 92.6298 126.781C92.653 126.839 92.6965 126.887 92.7521 126.915L175.809 156.268C175.836 156.278 175.865 156.282 175.894 156.283Z" fill="url(#paint43_linear_20_1512)"/>
<path d="M152.148 137.314L148.31 137.002L146.649 138.533C146.649 138.533 147.042 139.077 148.271 138.765C149.5 138.452 151.183 138.376 151.183 138.376C151.183 138.376 152.881 139.141 152.901 137.709L152.148 137.314Z" fill="url(#paint44_linear_20_1512)"/>
<path d="M83.4938 52.612C83.4938 74.3592 101.79 91.989 124.36 91.989C146.93 91.989 166.237 73.5891 166.237 51.8412C166.237 30.0933 146.93 13.2344 124.363 13.2344C101.795 13.2344 83.4938 30.8641 83.4938 52.612Z" fill="url(#paint45_linear_20_1512)"/>
<path d="M163.029 43.0374C163.053 43.0376 163.078 43.0345 163.101 43.0284C163.137 43.02 163.17 43.0047 163.199 42.9834C163.228 42.962 163.253 42.9351 163.272 42.904C163.29 42.873 163.303 42.8386 163.308 42.8028C163.313 42.7669 163.311 42.7304 163.302 42.6954C162.858 41.093 162.299 39.5247 161.631 38.0025C161.599 37.9356 161.543 37.8834 161.474 37.8565C161.405 37.8296 161.329 37.8301 161.26 37.8579C161.227 37.871 161.196 37.8907 161.17 37.9159C161.144 37.9411 161.124 37.9712 161.11 38.0045C161.096 38.0378 161.089 38.0736 161.089 38.1096C161.089 38.1457 161.096 38.1814 161.111 38.2146C161.769 39.7127 162.318 41.2564 162.754 42.8336C162.771 42.893 162.807 42.9452 162.857 42.982C162.907 43.0189 162.967 43.0383 163.029 43.0374Z" fill="#BDD0FB"/>
<path d="M156.784 30.7319C156.845 30.7318 156.904 30.7127 156.954 30.6772C156.983 30.6564 157.008 30.6298 157.027 30.599C157.046 30.5683 157.058 30.5341 157.063 30.4984C157.068 30.4628 157.066 30.4265 157.057 30.3917C157.048 30.3569 157.031 30.3243 157.009 30.296C149.438 20.6216 137.241 14.8462 124.385 14.8462C118.893 14.8462 113.585 15.9191 108.599 18.0335C108.566 18.0471 108.536 18.0673 108.51 18.0928C108.485 18.1184 108.465 18.1488 108.451 18.1823C108.438 18.2158 108.431 18.2516 108.432 18.2877C108.433 18.3237 108.441 18.3593 108.455 18.3922C108.487 18.4589 108.544 18.5106 108.613 18.5366C108.682 18.5626 108.759 18.5609 108.827 18.5317C113.738 16.4469 118.973 15.3901 124.384 15.3901C137.064 15.3901 149.092 21.0845 156.558 30.6258C156.585 30.6596 156.619 30.6867 156.659 30.7051C156.698 30.7235 156.741 30.7326 156.784 30.7319Z" fill="#BDD0FB"/>
<path d="M89.0538 52.6122C89.0538 71.437 104.891 86.6972 124.428 86.6972C143.965 86.6972 160.677 70.7697 160.677 51.9449C160.677 33.1201 143.963 18.5266 124.428 18.5266C104.894 18.5266 89.0538 33.7868 89.0538 52.6122Z" fill="#91B3FA"/>
<path opacity="0.78" d="M151.637 50.8443C151.725 52.2907 153.013 53.3958 154.515 53.3116C156.016 53.2274 157.163 51.986 157.075 50.5389C156.988 49.0919 155.699 47.9874 154.198 48.0717C152.696 48.1559 151.55 49.3972 151.637 50.8443Z" fill="white"/>
<path opacity="0.78" d="M92.7986 54.1439C92.8854 55.5903 94.1736 56.6954 95.6754 56.6111C97.1771 56.5269 98.3233 55.2856 98.2359 53.8385C98.1484 52.3914 96.8608 51.287 95.3591 51.3712C93.8574 51.4554 92.7118 52.6968 92.7986 54.1439Z" fill="white"/>
<path opacity="0.78" d="M129.742 77.6933C128.264 77.9505 127.283 79.3204 127.553 80.7462C127.823 82.1721 129.241 83.1165 130.721 82.8561C132.201 82.5957 133.181 81.229 132.911 79.8032C132.64 78.3773 131.222 77.4329 129.742 77.6933Z" fill="white"/>
<path opacity="0.78" d="M119.156 21.8269C117.677 22.0872 116.696 23.4539 116.966 24.8798C117.236 26.3056 118.655 27.25 120.135 26.9896C121.615 26.7293 122.594 25.3626 122.324 23.9367C122.054 22.5108 120.634 21.5665 119.156 21.8269Z" fill="white"/>
<path opacity="0.78" d="M110.381 79.1929C110.104 79.866 110.173 80.496 110.535 80.6002C110.897 80.7043 111.415 80.2434 111.692 79.5716C111.969 78.8998 111.9 78.2685 111.538 78.1644C111.176 78.0602 110.657 78.5199 110.381 79.1929Z" fill="white"/>
<path opacity="0.78" d="M134.051 26.2034C133.774 26.8765 133.844 27.5065 134.206 27.6106C134.568 27.7148 135.086 27.2545 135.363 26.5821C135.64 25.9096 135.57 25.279 135.209 25.1749C134.847 25.0707 134.327 25.531 134.051 26.2034Z" fill="white"/>
<path opacity="0.78" d="M98.0212 69.1201C97.422 69.5566 97.1417 70.1294 97.395 70.4C97.6483 70.6706 98.3394 70.535 98.9379 70.0991C99.5364 69.6633 99.8173 69.0892 99.564 68.8192C99.3107 68.5492 98.6203 68.6836 98.0212 69.1201Z" fill="white"/>
<path opacity="0.78" d="M146.805 35.6788C146.206 36.1153 145.925 36.6881 146.178 36.9581C146.431 37.2281 147.122 37.0937 147.721 36.6572C148.319 36.2207 148.6 35.6479 148.347 35.3773C148.094 35.1067 147.403 35.2397 146.805 35.6788Z" fill="white"/>
<path opacity="0.78" d="M96.4685 39.1167C95.791 38.8056 95.1333 38.83 95.0015 39.1713C94.8697 39.5127 95.3114 40.0411 95.9896 40.3523C96.6678 40.6634 97.3248 40.639 97.4572 40.2976C97.5897 39.9563 97.1467 39.4278 96.4685 39.1167Z" fill="white"/>
<path opacity="0.78" d="M149.756 65.4224C149.077 65.1112 148.42 65.1357 148.288 65.477C148.156 65.8184 148.599 66.3468 149.277 66.6579C149.955 66.9691 150.612 66.9447 150.744 66.6039C150.876 66.2632 150.431 65.7335 149.756 65.4224Z" fill="white"/>
<path opacity="0.78" d="M107.727 27.909C107.315 27.304 106.741 26.9961 106.441 27.2211C106.142 27.4461 106.237 28.1211 106.649 28.7254C107.062 29.3297 107.636 29.6382 107.935 29.4126C108.234 29.187 108.139 28.5139 107.727 27.909Z" fill="white"/>
<path opacity="0.78" d="M139.091 77.049C138.679 76.4441 138.104 76.1362 137.805 76.3618C137.506 76.5875 137.601 77.2618 138.013 77.8655C138.425 78.4691 138.999 78.7783 139.299 78.5533C139.598 78.3283 139.503 77.6572 139.091 77.049Z" fill="white"/>
<path d="M124.535 51.9745L148.422 56.2855C148.885 56.3691 149.282 55.9422 149.147 55.5064L148.341 52.9131C148.185 52.4091 148.727 51.9552 149.219 52.1821L168.038 60.9076C168.617 61.1744 168.434 62.0153 167.792 62.0577L147.037 63.4405C146.927 63.4512 146.816 63.4311 146.717 63.3826C146.618 63.3341 146.534 63.259 146.475 63.1657C146.416 63.0725 146.384 62.9646 146.383 62.8542C146.381 62.7439 146.411 62.6352 146.467 62.5405L148.164 59.7209C148.213 59.6406 148.242 59.5498 148.248 59.4561C148.255 59.3624 148.239 59.2684 148.203 59.1819C148.166 59.0954 148.109 59.019 148.037 58.9589C147.964 58.8988 147.879 58.8568 147.787 58.8364L124.248 53.1574C124.171 53.1401 124.098 53.1077 124.034 53.062C123.97 53.0164 123.915 52.9583 123.874 52.8913C123.832 52.8243 123.804 52.7497 123.792 52.6719C123.78 52.594 123.783 52.5145 123.802 52.438C123.843 52.2827 123.942 52.1486 124.078 52.0627C124.214 51.9768 124.377 51.9453 124.535 51.9745Z" fill="url(#paint46_linear_20_1512)"/>
<path d="M165.651 61.5017C165.747 61.4762 165.834 61.4242 165.903 61.3516C165.971 61.2789 166.017 61.1886 166.037 61.0909C166.061 60.9754 166.044 60.8551 165.988 60.7512C165.932 60.6472 165.841 60.5662 165.732 60.5226L161.661 58.7869C161.593 58.7581 161.516 58.7566 161.447 58.7828C161.377 58.809 161.321 58.8609 161.288 58.9277C161.273 58.9602 161.264 58.9955 161.263 59.0315C161.262 59.0675 161.267 59.1034 161.28 59.137C161.293 59.1706 161.313 59.2013 161.338 59.2271C161.363 59.2528 161.393 59.2732 161.427 59.287L165.497 61.0227C160.781 61.2722 149.765 61.9613 149.543 61.9999C149.47 62.0114 149.405 62.0511 149.361 62.1103C149.318 62.1694 149.299 62.2434 149.309 62.3162C149.322 62.3872 149.363 62.4503 149.422 62.4917C149.481 62.5331 149.555 62.5495 149.626 62.5373C149.951 62.4994 158.392 61.9664 165.533 61.5216C165.573 61.5192 165.612 61.5126 165.651 61.5017Z" fill="white"/>
<path d="M123.247 50.5202L123.291 29.9083C123.284 29.4518 122.777 29.1683 122.36 29.3901L119.899 30.7118C119.42 30.969 118.853 30.5518 118.986 30.0388L124.076 10.3319C124.232 9.72894 125.117 9.71866 125.288 10.3178L130.797 29.6775C130.926 30.1403 130.476 30.5595 129.999 30.4103L126.814 29.4126C126.42 29.2892 126.013 29.5611 125.994 29.9597L124.5 50.5376C124.49 50.6983 124.417 50.8486 124.298 50.9567C124.178 51.0648 124.022 51.122 123.861 51.1161C123.701 51.1157 123.548 51.0533 123.434 50.9421C123.319 50.831 123.252 50.6797 123.247 50.5202Z" fill="url(#paint47_linear_20_1512)"/>
<path d="M129.106 27.7875C129.142 27.7876 129.177 27.7813 129.21 27.7688C129.243 27.7568 129.274 27.7382 129.301 27.7141C129.327 27.6901 129.348 27.661 129.363 27.6287C129.378 27.5963 129.387 27.5613 129.388 27.5257C129.389 27.49 129.384 27.4545 129.371 27.421C129.269 27.1228 127.057 19.242 125.193 12.5742C125.158 12.4607 125.087 12.3617 124.99 12.2923C124.894 12.2229 124.777 12.1869 124.658 12.1899C124.54 12.1928 124.425 12.2344 124.332 12.3084C124.239 12.3825 124.173 12.4848 124.144 12.6L123.195 16.83C123.187 16.8653 123.187 16.9017 123.194 16.9371C123.201 16.9725 123.215 17.0061 123.236 17.0361C123.256 17.066 123.282 17.0916 123.312 17.1114C123.342 17.1312 123.376 17.1448 123.411 17.1514C123.483 17.1673 123.559 17.1545 123.621 17.1158C123.684 17.077 123.729 17.0153 123.747 16.9437L124.695 12.7137C125.882 17.127 128.761 27.4108 128.843 27.6133C128.865 27.6652 128.901 27.7095 128.948 27.7405C128.995 27.7716 129.05 27.7879 129.106 27.7875Z" fill="white"/>
<path d="M124.611 54.4282C126.217 54.4282 127.52 53.1734 127.52 51.6254C127.52 50.0774 126.217 48.8225 124.611 48.8225C123.004 48.8225 121.702 50.0774 121.702 51.6254C121.702 53.1734 123.004 54.4282 124.611 54.4282Z" fill="url(#paint48_linear_20_1512)"/>
<defs>
<linearGradient id="paint0_linear_20_1512" x1="202.131" y1="230.416" x2="44.3328" y2="34.4404" gradientUnits="userSpaceOnUse">
<stop stop-color="#DAE3FE"/>
<stop offset="1" stop-color="#E9EFFD"/>
</linearGradient>
<linearGradient id="paint1_linear_20_1512" x1="75.6329" y1="129.199" x2="13.2062" y2="197.008" gradientUnits="userSpaceOnUse">
<stop stop-color="#4F52FF"/>
<stop offset="1" stop-color="#4042E2"/>
</linearGradient>
<linearGradient id="paint2_linear_20_1512" x1="38094.4" y1="1458.64" x2="120265" y2="1458.64" gradientUnits="userSpaceOnUse">
<stop stop-color="#DAE3FE"/>
<stop offset="1" stop-color="#E9EFFD"/>
</linearGradient>
<linearGradient id="paint3_linear_20_1512" x1="38094.4" y1="1476.47" x2="120265" y2="1476.47" gradientUnits="userSpaceOnUse">
<stop stop-color="#DAE3FE"/>
<stop offset="1" stop-color="#E9EFFD"/>
</linearGradient>
<linearGradient id="paint4_linear_20_1512" x1="38094.4" y1="1494.26" x2="120265" y2="1494.26" gradientUnits="userSpaceOnUse">
<stop stop-color="#DAE3FE"/>
<stop offset="1" stop-color="#E9EFFD"/>
</linearGradient>
<linearGradient id="paint5_linear_20_1512" x1="38094.4" y1="1512.14" x2="120265" y2="1512.14" gradientUnits="userSpaceOnUse">
<stop stop-color="#DAE3FE"/>
<stop offset="1" stop-color="#E9EFFD"/>
</linearGradient>
<linearGradient id="paint6_linear_20_1512" x1="38106.2" y1="1527.97" x2="120302" y2="1527.97" gradientUnits="userSpaceOnUse">
<stop stop-color="#DAE3FE"/>
<stop offset="1" stop-color="#E9EFFD"/>
</linearGradient>
<linearGradient id="paint7_linear_20_1512" x1="101.107" y1="101.272" x2="37.5643" y2="186.658" gradientUnits="userSpaceOnUse">
<stop stop-color="#53D8FF"/>
<stop offset="1" stop-color="#3840F7"/>
</linearGradient>
<linearGradient id="paint8_linear_20_1512" x1="6149.63" y1="26300.9" x2="-1647.52" y2="28785.3" gradientUnits="userSpaceOnUse">
<stop stop-color="#53D8FF"/>
<stop offset="1" stop-color="#3840F7"/>
</linearGradient>
<linearGradient id="paint9_linear_20_1512" x1="35354.4" y1="94460.7" x2="63701.4" y2="94460.7" gradientUnits="userSpaceOnUse">
<stop stop-color="#DAE3FE"/>
<stop offset="1" stop-color="#E9EFFD"/>
</linearGradient>
<linearGradient id="paint10_linear_20_1512" x1="52.0263" y1="22.205" x2="105.319" y2="114.248" gradientUnits="userSpaceOnUse">
<stop stop-color="#CE1567"/>
<stop offset="1" stop-color="#7A1DBC"/>
</linearGradient>
<linearGradient id="paint11_linear_20_1512" x1="27393.8" y1="13214" x2="29837.7" y2="32122.3" gradientUnits="userSpaceOnUse">
<stop stop-color="#CE1567"/>
<stop offset="1" stop-color="#7A1DBC"/>
</linearGradient>
<linearGradient id="paint12_linear_20_1512" x1="87.843" y1="83.9668" x2="51.7115" y2="146.382" gradientUnits="userSpaceOnUse">
<stop stop-color="#A737D5"/>
<stop offset="1" stop-color="#EF497A"/>
</linearGradient>
<linearGradient id="paint13_linear_20_1512" x1="115.655" y1="-40.8362" x2="105.051" y2="-3.13832" gradientUnits="userSpaceOnUse">
<stop stop-color="#FF928E"/>
<stop offset="1" stop-color="#FE7062"/>
</linearGradient>
<linearGradient id="paint14_linear_20_1512" x1="14867.4" y1="447.905" x2="12517.1" y2="6585.73" gradientUnits="userSpaceOnUse">
<stop stop-color="#FF928E"/>
<stop offset="1" stop-color="#FE7062"/>
</linearGradient>
<linearGradient id="paint15_linear_20_1512" x1="14243.9" y1="190.538" x2="11893.6" y2="6328.37" gradientUnits="userSpaceOnUse">
<stop stop-color="#FF928E"/>
<stop offset="1" stop-color="#FE7062"/>
</linearGradient>
<linearGradient id="paint16_linear_20_1512" x1="13696.6" y1="-37.0647" x2="11347.1" y2="6100.37" gradientUnits="userSpaceOnUse">
<stop stop-color="#FF928E"/>
<stop offset="1" stop-color="#FE7062"/>
</linearGradient>
<linearGradient id="paint17_linear_20_1512" x1="92167.6" y1="-60339.6" x2="78396.2" y2="-32177.8" gradientUnits="userSpaceOnUse">
<stop stop-color="#4F52FF"/>
<stop offset="1" stop-color="#4042E2"/>
</linearGradient>
<linearGradient id="paint18_linear_20_1512" x1="85158.6" y1="54452.9" x2="66559.2" y2="42037" gradientUnits="userSpaceOnUse">
<stop stop-color="#4F52FF"/>
<stop offset="1" stop-color="#4042E2"/>
</linearGradient>
<linearGradient id="paint19_linear_20_1512" x1="54757.7" y1="-9070.86" x2="28679.1" y2="6252" gradientUnits="userSpaceOnUse">
<stop stop-color="#4F52FF"/>
<stop offset="1" stop-color="#4042E2"/>
</linearGradient>
<linearGradient id="paint20_linear_20_1512" x1="-552564" y1="319185" x2="-543258" y2="306240" gradientUnits="userSpaceOnUse">
<stop stop-color="#4F52FF"/>
<stop offset="1" stop-color="#4042E2"/>
</linearGradient>
<linearGradient id="paint21_linear_20_1512" x1="21305.7" y1="2949.85" x2="20092.2" y2="2949.85" gradientUnits="userSpaceOnUse">
<stop stop-color="#4F52FF"/>
<stop offset="1" stop-color="#4042E2"/>
</linearGradient>
<linearGradient id="paint22_linear_20_1512" x1="148.74" y1="177.841" x2="140.156" y2="177.841" gradientUnits="userSpaceOnUse">
<stop stop-color="#09005D"/>
<stop offset="1" stop-color="#1A0F91"/>
</linearGradient>
<linearGradient id="paint23_linear_20_1512" x1="147.924" y1="175.424" x2="145.436" y2="175.424" gradientUnits="userSpaceOnUse">
<stop stop-color="#FEBBBA"/>
<stop offset="1" stop-color="#FF928E"/>
</linearGradient>
<linearGradient id="paint24_linear_20_1512" x1="8960.31" y1="4188.02" x2="8782.07" y2="4188.02" gradientUnits="userSpaceOnUse">
<stop stop-color="#4F52FF"/>
<stop offset="1" stop-color="#4042E2"/>
</linearGradient>
<linearGradient id="paint25_linear_20_1512" x1="-13284.3" y1="18629.8" x2="-12900.2" y2="18629.8" gradientUnits="userSpaceOnUse">
<stop stop-color="#09005D"/>
<stop offset="1" stop-color="#1A0F91"/>
</linearGradient>
<linearGradient id="paint26_linear_20_1512" x1="-7765.81" y1="11176.1" x2="-7628.28" y2="11176.1" gradientUnits="userSpaceOnUse">
<stop stop-color="#FEBBBA"/>
<stop offset="1" stop-color="#FF928E"/>
</linearGradient>
<linearGradient id="paint27_linear_20_1512" x1="54010.5" y1="101277" x2="74309" y2="119993" gradientUnits="userSpaceOnUse">
<stop stop-color="#4F52FF"/>
<stop offset="1" stop-color="#4042E2"/>
</linearGradient>
<linearGradient id="paint28_linear_20_1512" x1="58598.6" y1="37092.6" x2="53364.1" y2="46226.9" gradientUnits="userSpaceOnUse">
<stop stop-color="#FF928E"/>
<stop offset="1" stop-color="#FE7062"/>
</linearGradient>
<linearGradient id="paint29_linear_20_1512" x1="9806.44" y1="10645.8" x2="9734.18" y2="10482.6" gradientUnits="userSpaceOnUse">
<stop stop-color="#53D8FF"/>
<stop offset="1" stop-color="#3840F7"/>
</linearGradient>
<linearGradient id="paint30_linear_20_1512" x1="-10719.3" y1="22412" x2="-11812.8" y2="22889" gradientUnits="userSpaceOnUse">
<stop stop-color="#FEBBBA"/>
<stop offset="1" stop-color="#FF928E"/>
</linearGradient>
<linearGradient id="paint31_linear_20_1512" x1="27589.5" y1="22062.7" x2="24271.5" y2="26626.3" gradientUnits="userSpaceOnUse">
<stop stop-color="#FF928E"/>
<stop offset="1" stop-color="#FE7062"/>
</linearGradient>
<linearGradient id="paint32_linear_20_1512" x1="19048" y1="17504.4" x2="16129.3" y2="21025.2" gradientUnits="userSpaceOnUse">
<stop stop-color="#FF928E"/>
<stop offset="1" stop-color="#FE7062"/>
</linearGradient>
<linearGradient id="paint33_linear_20_1512" x1="-17761" y1="13416.4" x2="-16679.8" y2="13416.4" gradientUnits="userSpaceOnUse">
<stop stop-color="#FEBBBA"/>
<stop offset="1" stop-color="#FF928E"/>
</linearGradient>
<linearGradient id="paint34_linear_20_1512" x1="-13898.4" y1="17754.6" x2="-13913.9" y2="19747.2" gradientUnits="userSpaceOnUse">
<stop stop-color="#FEBBBA"/>
<stop offset="1" stop-color="#FF928E"/>
</linearGradient>
<linearGradient id="paint35_linear_20_1512" x1="9070.02" y1="26211.3" x2="9877.43" y2="27153.3" gradientUnits="userSpaceOnUse">
<stop stop-color="#FEBBBA"/>
<stop offset="1" stop-color="#FF928E"/>
</linearGradient>
<linearGradient id="paint36_linear_20_1512" x1="17662.1" y1="42291.3" x2="16400.4" y2="42112.9" gradientUnits="userSpaceOnUse">
<stop stop-color="#09005D"/>
<stop offset="1" stop-color="#1A0F91"/>
</linearGradient>
<linearGradient id="paint37_linear_20_1512" x1="3579.05" y1="9656.32" x2="3363.41" y2="9450.6" gradientUnits="userSpaceOnUse">
<stop stop-color="#FEBBBA"/>
<stop offset="1" stop-color="#FF928E"/>
</linearGradient>
<linearGradient id="paint38_linear_20_1512" x1="-5934.93" y1="7486.06" x2="-5796.35" y2="7486.06" gradientUnits="userSpaceOnUse">
<stop stop-color="#FEBBBA"/>
<stop offset="1" stop-color="#FF928E"/>
</linearGradient>
<linearGradient id="paint39_linear_20_1512" x1="-141559" y1="94762.3" x2="-225897" y2="223625" gradientUnits="userSpaceOnUse">
<stop stop-color="#09005D"/>
<stop offset="1" stop-color="#1A0F91"/>
</linearGradient>
<linearGradient id="paint40_linear_20_1512" x1="-18216.3" y1="18882.3" x2="-16327.9" y2="16185.8" gradientUnits="userSpaceOnUse">
<stop stop-color="#09005D"/>
<stop offset="1" stop-color="#1A0F91"/>
</linearGradient>
<linearGradient id="paint41_linear_20_1512" x1="-20971.2" y1="30801.9" x2="-34639.8" y2="47455.4" gradientUnits="userSpaceOnUse">
<stop stop-color="#FEBBBA"/>
<stop offset="1" stop-color="#FF928E"/>
</linearGradient>
<linearGradient id="paint42_linear_20_1512" x1="150207" y1="63798.5" x2="166183" y2="109737" gradientUnits="userSpaceOnUse">
<stop stop-color="#4F52FF"/>
<stop offset="1" stop-color="#4042E2"/>
</linearGradient>
<linearGradient id="paint43_linear_20_1512" x1="148347" y1="66128" x2="164323" y2="112066" gradientUnits="userSpaceOnUse">
<stop stop-color="#4F52FF"/>
<stop offset="1" stop-color="#4042E2"/>
</linearGradient>
<linearGradient id="paint44_linear_20_1512" x1="-14788" y1="4880.16" x2="-14974.2" y2="5434.57" gradientUnits="userSpaceOnUse">
<stop stop-color="#FEBBBA"/>
<stop offset="1" stop-color="#FF928E"/>
</linearGradient>
<linearGradient id="paint45_linear_20_1512" x1="445128" y1="-109034" x2="339840" y2="-10830" gradientUnits="userSpaceOnUse">
<stop stop-color="#09005D"/>
<stop offset="1" stop-color="#1A0F91"/>
</linearGradient>
<linearGradient id="paint46_linear_20_1512" x1="-69966.8" y1="-187763" x2="-75556.6" y2="-184934" gradientUnits="userSpaceOnUse">
<stop stop-color="#FF928E"/>
<stop offset="1" stop-color="#FE7062"/>
</linearGradient>
<linearGradient id="paint47_linear_20_1512" x1="-19996.5" y1="-69587.3" x2="-23462.8" y2="-61077.9" gradientUnits="userSpaceOnUse">
<stop stop-color="#FF928E"/>
<stop offset="1" stop-color="#FE7062"/>
</linearGradient>
<linearGradient id="paint48_linear_20_1512" x1="7367.93" y1="20958.5" x2="5141.21" y2="14942" gradientUnits="userSpaceOnUse">
<stop stop-color="#09005D"/>
<stop offset="1" stop-color="#1A0F91"/>
</linearGradient>
</defs>
</svg>
