<svg width="16" height="16" viewBox="0 0 16 16" fill="none" xmlns="http://www.w3.org/2000/svg">
<g opacity="0.65">
<path d="M10.7914 2.34073C10.7277 2.28043 10.6434 2.24683 10.5557 2.24683C10.468 2.24683 10.3837 2.28043 10.32 2.34073L2.71136 9.9494C2.64887 10.0119 2.61377 10.0967 2.61377 10.1851C2.61377 10.2735 2.64887 10.3582 2.71136 10.4207L5.5647 13.2741C5.62721 13.3366 5.71198 13.3717 5.80036 13.3717C5.88875 13.3717 5.97352 13.3366 6.03603 13.2741L13.6447 5.66673C13.7072 5.60422 13.7423 5.51945 13.7423 5.43107C13.7423 5.34268 13.7072 5.25791 13.6447 5.1954L10.7914 2.34073Z" fill="#202427"/>
<path d="M2.00011 11.1399C1.95973 11.0998 1.90973 11.0706 1.85489 11.0553C1.80005 11.04 1.7422 11.0389 1.68684 11.0523C1.63149 11.0657 1.58049 11.093 1.5387 11.1317C1.4969 11.1703 1.46572 11.2191 1.44811 11.2732L0.0214434 15.5532C0.00175745 15.6119 -0.00118532 15.675 0.012945 15.7353C0.0270753 15.7956 0.05772 15.8507 0.101443 15.8946C0.145555 15.9379 0.200684 15.9683 0.260854 15.9825C0.321024 15.9967 0.383939 15.9942 0.442777 15.9752L4.72278 14.5492C4.77706 14.5317 4.82592 14.5005 4.8647 14.4586C4.90348 14.4168 4.93087 14.3657 4.94425 14.3102C4.95763 14.2548 4.95655 14.1968 4.94112 14.1419C4.92568 14.087 4.89642 14.0369 4.85611 13.9966L2.00011 11.1399Z" fill="#202427"/>
<path d="M15.3119 0.678113C14.8639 0.250679 14.2684 0.012207 13.6492 0.012207C13.03 0.012207 12.4346 0.250679 11.9866 0.678113L11.5119 1.15345C11.4494 1.21596 11.4143 1.30072 11.4143 1.38911C11.4143 1.4775 11.4494 1.56227 11.5119 1.62478L14.3646 4.47811C14.4271 4.5406 14.5118 4.57571 14.6002 4.57571C14.6886 4.57571 14.7734 4.5406 14.8359 4.47811L15.3119 4.00011C15.7514 3.55903 15.9981 2.96176 15.9981 2.33911C15.9981 1.71647 15.7514 1.1192 15.3119 0.678113Z" fill="#202427"/>
</g>
</svg>
