<svg width="16" height="16" viewBox="0 0 16 16" fill="none" xmlns="http://www.w3.org/2000/svg">
<g clip-path="url(#clip0_20_1419)">
<path d="M13.0001 5H3.00008C2.91168 5 2.82689 5.03512 2.76438 5.09763C2.70187 5.16014 2.66675 5.24493 2.66675 5.33333V14.6667C2.66675 15.0203 2.80722 15.3594 3.05727 15.6095C3.30732 15.8595 3.64646 16 4.00008 16H12.0001C12.3537 16 12.6928 15.8595 12.9429 15.6095C13.1929 15.3594 13.3334 15.0203 13.3334 14.6667V5.33333C13.3334 5.24493 13.2983 5.16014 13.2358 5.09763C13.1733 5.03512 13.0885 5 13.0001 5ZM6.83341 13.6667C6.83341 13.7993 6.78074 13.9265 6.68697 14.0202C6.5932 14.114 6.46602 14.1667 6.33341 14.1667C6.20081 14.1667 6.07363 14.114 5.97986 14.0202C5.88609 13.9265 5.83341 13.7993 5.83341 13.6667V7.66667C5.83341 7.53406 5.88609 7.40688 5.97986 7.31311C6.07363 7.21935 6.20081 7.16667 6.33341 7.16667C6.46602 7.16667 6.5932 7.21935 6.68697 7.31311C6.78074 7.40688 6.83341 7.53406 6.83341 7.66667V13.6667ZM10.1667 13.6667C10.1667 13.7993 10.1141 13.9265 10.0203 14.0202C9.92653 14.114 9.79936 14.1667 9.66675 14.1667C9.53414 14.1667 9.40696 14.114 9.31319 14.0202C9.21943 13.9265 9.16675 13.7993 9.16675 13.6667V7.66667C9.16675 7.53406 9.21943 7.40688 9.31319 7.31311C9.40696 7.21935 9.53414 7.16667 9.66675 7.16667C9.79936 7.16667 9.92653 7.21935 10.0203 7.31311C10.1141 7.40688 10.1667 7.53406 10.1667 7.66667V13.6667Z" fill="#EC3535"/>
<path d="M14.6667 2.66667H11.5001C11.4559 2.66667 11.4135 2.64911 11.3822 2.61785C11.351 2.5866 11.3334 2.5442 11.3334 2.5V1.66667C11.3334 1.22464 11.1578 0.800716 10.8453 0.488155C10.5327 0.175595 10.1088 0 9.66675 0L6.33341 0C5.89139 0 5.46746 0.175595 5.1549 0.488155C4.84234 0.800716 4.66675 1.22464 4.66675 1.66667V2.5C4.66675 2.5442 4.64919 2.5866 4.61793 2.61785C4.58668 2.64911 4.54428 2.66667 4.50008 2.66667H1.33341C1.1566 2.66667 0.987034 2.7369 0.86201 2.86193C0.736986 2.98695 0.666748 3.15652 0.666748 3.33333C0.666748 3.51014 0.736986 3.67971 0.86201 3.80474C0.987034 3.92976 1.1566 4 1.33341 4H14.6667C14.8436 4 15.0131 3.92976 15.1382 3.80474C15.2632 3.67971 15.3334 3.51014 15.3334 3.33333C15.3334 3.15652 15.2632 2.98695 15.1382 2.86193C15.0131 2.7369 14.8436 2.66667 14.6667 2.66667ZM6.00008 2.5V1.66667C6.00008 1.57826 6.0352 1.49348 6.09771 1.43096C6.16022 1.36845 6.24501 1.33333 6.33341 1.33333H9.66675C9.75515 1.33333 9.83994 1.36845 9.90245 1.43096C9.96496 1.49348 10.0001 1.57826 10.0001 1.66667V2.5C10.0001 2.5442 9.98252 2.5866 9.95127 2.61785C9.92001 2.64911 9.87762 2.66667 9.83341 2.66667H6.16675C6.12254 2.66667 6.08015 2.64911 6.0489 2.61785C6.01764 2.5866 6.00008 2.5442 6.00008 2.5Z" fill="#EC3535"/>
</g>
<defs>
<clipPath id="clip0_20_1419">
<rect width="16" height="16" fill="white"/>
</clipPath>
</defs>
</svg>
